<svg version="1.1" viewBox="0.0 0.0 600.0 217.0" fill="none" stroke="none" stroke-linecap="square" stroke-miterlimit="10" width="600" height="217" xmlns:xlink="http://www.w3.org/1999/xlink" xmlns="http://www.w3.org/2000/svg"><path fill="#000000" d="M0 0L600.0 0L600.0 217.0L0 217.0L0 0Z" fill-rule="nonzero"/><path stroke="#cccccc" stroke-width="1.0" stroke-linecap="butt" d="M85.5 66.5L85.5 148.5" fill-rule="nonzero"/><path stroke="#333333" stroke-width="1.0" stroke-linecap="butt" d="M253.5 66.5L253.5 148.5" fill-rule="nonzero"/><path stroke="#333333" stroke-width="1.0" stroke-linecap="butt" d="M421.5 66.5L421.5 148.5" fill-rule="nonzero"/><path stroke="#333333" stroke-width="1.0" stroke-linecap="butt" d="M589.5 66.5L589.5 148.5" fill-rule="nonzero"/><path stroke="#000000" stroke-width="1.0" stroke-linecap="butt" stroke-opacity="0.0" d="M141.5 66.5L141.5 148.5" fill-rule="nonzero"/><path stroke="#000000" stroke-width="1.0" stroke-linecap="butt" stroke-opacity="0.0" d="M197.5 66.5L197.5 148.5" fill-rule="nonzero"/><path stroke="#000000" stroke-width="1.0" stroke-linecap="butt" stroke-opacity="0.0" d="M309.5 66.5L309.5 148.5" fill-rule="nonzero"/><path stroke="#000000" stroke-width="1.0" stroke-linecap="butt" stroke-opacity="0.0" d="M365.5 66.5L365.5 148.5" fill-rule="nonzero"/><path stroke="#000000" stroke-width="1.0" stroke-linecap="butt" stroke-opacity="0.0" d="M477.5 66.5L477.5 148.5" fill-rule="nonzero"/><path stroke="#000000" stroke-width="1.0" stroke-linecap="butt" stroke-opacity="0.0" d="M533.5 66.5L533.5 148.5" fill-rule="nonzero"/><path stroke="#000000" stroke-width="1.0" stroke-linecap="butt" d="M589.5 148.5L85.5 148.5" fill-rule="nonzero"/><clipPath id="id_0"><path d="M85.85 66.583336L589.15 66.583336L589.15 148.15L85.85 148.15L85.85 66.583336Z" clip-rule="nonzero"/></clipPath><path stroke="#00ffff" stroke-width="2.0" stroke-linecap="butt" stroke-opacity="0.0" clip-path="url(#id_0)" d="M86.0 102.0L86.0 79.0L248.0 79.0C249.10457 79.0 250.0 79.89543 250.0 81.0L250.0 100.0C250.0 101.10457 249.10457 102.0 248.0 102.0Z" fill-rule="nonzero"/><path fill="#cc0000" clip-path="url(#id_0)" d="M86.0 102.0L86.0 79.0L248.0 79.0C249.10457 79.0 250.0 79.89543 250.0 81.0L250.0 100.0C250.0 101.10457 249.10457 102.0 248.0 102.0Z" fill-rule="nonzero"/><path stroke="#00ff00" stroke-width="2.0" stroke-linecap="butt" stroke-opacity="0.0" clip-path="url(#id_0)" d="M86.0 137.0L86.0 114.0L504.0 114.0C505.10458 114.0 506.0 114.89543 506.0 116.0L506.0 135.0C506.0 136.10457 505.10458 137.0 504.0 137.0Z" fill-rule="nonzero"/><path fill="#f3f3f3" clip-path="url(#id_0)" d="M86.0 137.0L86.0 114.0L504.0 114.0C505.10458 114.0 506.0 114.89543 506.0 116.0L506.0 135.0C506.0 136.10457 505.10458 137.0 504.0 137.0Z" fill-rule="nonzero"/><path stroke="#ffffff" stroke-width="1.0" stroke-linecap="butt" d="M141.5 151.5L141.5 145.5" fill-rule="nonzero"/><path stroke="#ffffff" stroke-width="1.0" stroke-linecap="butt" d="M197.5 151.5L197.5 145.5" fill-rule="nonzero"/><path stroke="#ffffff" stroke-width="1.0" stroke-linecap="butt" d="M309.5 151.5L309.5 145.5" fill-rule="nonzero"/><path stroke="#ffffff" stroke-width="1.0" stroke-linecap="butt" d="M365.5 151.5L365.5 145.5" fill-rule="nonzero"/><path stroke="#ffffff" stroke-width="1.0" stroke-linecap="butt" d="M477.5 151.5L477.5 145.5" fill-rule="nonzero"/><path stroke="#ffffff" stroke-width="1.0" stroke-linecap="butt" d="M533.5 151.5L533.5 145.5" fill-rule="nonzero"/><path stroke="#ffffff" stroke-width="1.0" stroke-linecap="butt" d="M85.5 154.5L85.5 142.5" fill-rule="nonzero"/><path stroke="#ffffff" stroke-width="1.0" stroke-linecap="butt" d="M253.5 154.5L253.5 142.5" fill-rule="nonzero"/><path stroke="#ffffff" stroke-width="1.0" stroke-linecap="butt" d="M421.5 154.5L421.5 142.5" fill-rule="nonzero"/><path stroke="#ffffff" stroke-width="1.0" stroke-linecap="butt" d="M589.5 154.5L589.5 142.5" fill-rule="nonzero"/><path stroke="#cc0000" stroke-width="3.0" stroke-linejoin="round" stroke-linecap="round" d="M199.01872 90.75Q198.6906 91.15625 198.20622 91.40625Q197.73747 91.640625 197.17497 91.640625Q196.4406 91.640625 195.89372 91.28125Q195.34685 90.921875 195.04997 90.265625Q194.7531 89.59375 194.7531 88.796875Q194.7531 87.953125 195.0656 87.265625Q195.39372 86.578125 195.98747 86.21875Q196.59685 85.84375 197.39372 85.84375Q198.65935 85.84375 199.3781 86.796875Q200.11247 87.75 200.11247 89.375L200.11247 89.6875Q200.11247 92.1875 199.1281 93.328125Q198.14372 94.46875 196.15935 94.5L195.9406 94.5L195.9406 93.59375L196.17497 93.59375Q197.51872 93.5625 198.23747 92.890625Q198.95622 92.21875 199.01872 90.75ZM197.34685 90.75Q197.89372 90.75 198.34685 90.421875Q198.8156 90.078125 199.03435 89.59375L199.03435 89.15625Q199.03435 88.09375 198.5656 87.421875Q198.09685 86.75 197.39372 86.75Q196.67497 86.75 196.23747 87.296875Q195.8156 87.84375 195.8156 88.75Q195.8156 89.625 196.22185 90.1875Q196.64372 90.75 197.34685 90.75ZM207.3781 86.578125L203.84685 94.5L202.70622 94.5L206.22185 86.859375L201.61247 86.859375L201.61247 85.96875L207.3781 85.96875L207.3781 86.578125ZM209.0031 93.9375Q209.0031 93.65625 209.15935 93.46875Q209.33122 93.28125 209.65935 93.28125Q210.0031 93.28125 210.17497 93.46875Q210.34685 93.65625 210.34685 93.9375Q210.34685 94.203125 210.17497 94.390625Q210.0031 94.5625 209.65935 94.5625Q209.33122 94.5625 209.15935 94.390625Q209.0031 94.203125 209.0031 93.9375ZM217.04997 88.1875Q217.04997 88.828125 216.70622 89.328125Q216.36247 89.828125 215.79997 90.109375Q216.45622 90.390625 216.84685 90.953125Q217.23747 91.5 217.23747 92.203125Q217.23747 93.296875 216.48747 93.96875Q215.7531 94.625 214.53435 94.625Q213.29997 94.625 212.54997 93.96875Q211.8156 93.296875 211.8156 92.203125Q211.8156 91.5 212.1906 90.953125Q212.5656 90.390625 213.23747 90.109375Q212.67497 89.828125 212.34685 89.328125Q212.01872 88.828125 212.01872 88.1875Q212.01872 87.109375 212.70622 86.484375Q213.39372 85.84375 214.53435 85.84375Q215.65935 85.84375 216.34685 86.484375Q217.04997 87.109375 217.04997 88.1875ZM216.15935 92.171875Q216.15935 91.453125 215.70622 91.015625Q215.2531 90.5625 214.51872 90.5625Q213.78435 90.5625 213.33122 91.015625Q212.89372 91.453125 212.89372 92.1875Q212.89372 92.90625 213.33122 93.328125Q213.76872 93.734375 214.53435 93.734375Q215.28435 93.734375 215.72185 93.3125Q216.15935 92.890625 216.15935 92.171875ZM214.53435 86.734375Q213.89372 86.734375 213.48747 87.140625Q213.09685 87.53125 213.09685 88.21875Q213.09685 88.859375 213.48747 89.265625Q213.8781 89.671875 214.51872 89.671875Q215.17497 89.671875 215.5656 89.265625Q215.95622 88.859375 215.95622 88.21875Q215.95622 87.5625 215.54997 87.15625Q215.14372 86.734375 214.53435 86.734375ZM224.45622 94.5L218.86247 94.5L218.86247 93.71875L221.8156 90.4375Q222.47185 89.6875 222.72185 89.234375Q222.97185 88.765625 222.97185 88.265625Q222.97185 87.59375 222.5656 87.171875Q222.17497 86.734375 221.48747 86.734375Q220.6906 86.734375 220.23747 87.203125Q219.78435 87.65625 219.78435 88.484375L218.70622 88.484375Q218.70622 87.296875 219.45622 86.578125Q220.22185 85.84375 221.48747 85.84375Q222.6906 85.84375 223.3781 86.46875Q224.0656 87.09375 224.0656 88.140625Q224.0656 89.390625 222.45622 91.140625L220.17497 93.609375L224.45622 93.609375L224.45622 94.5ZM230.0031 88.15625L230.03435 88.859375Q230.72185 88.046875 231.90935 88.046875Q233.23747 88.046875 233.72185 89.0625Q234.03435 88.609375 234.53435 88.328125Q235.04997 88.046875 235.73747 88.046875Q237.83122 88.046875 237.86247 90.25L237.86247 94.5L236.78435 94.5L236.78435 90.3125Q236.78435 89.640625 236.47185 89.3125Q236.15935 88.96875 235.42497 88.96875Q234.8156 88.96875 234.40935 89.328125Q234.01872 89.6875 233.95622 90.296875L233.95622 94.5L232.8781 94.5L232.8781 90.34375Q232.8781 88.96875 231.51872 88.96875Q230.45622 88.96875 230.0656 89.875L230.0656 94.5L228.97185 94.5L228.97185 88.15625L230.0031 88.15625ZM243.67497 92.8125Q243.67497 92.375 243.33122 92.140625Q243.0031 91.890625 242.17497 91.71875Q241.36247 91.546875 240.8781 91.296875Q240.39372 91.046875 240.15935 90.71875Q239.9406 90.375 239.9406 89.90625Q239.9406 89.125 240.59685 88.59375Q241.2531 88.046875 242.28435 88.046875Q243.36247 88.046875 244.01872 88.609375Q244.6906 89.15625 244.6906 90.015625L243.61247 90.015625Q243.61247 89.578125 243.22185 89.265625Q242.84685 88.9375 242.28435 88.9375Q241.6906 88.9375 241.34685 89.203125Q241.01872 89.453125 241.01872 89.859375Q241.01872 90.25 241.33122 90.453125Q241.64372 90.65625 242.45622 90.84375Q243.26872 91.015625 243.76872 91.265625Q244.26872 91.515625 244.5031 91.875Q244.7531 92.234375 244.7531 92.734375Q244.7531 93.59375 244.0656 94.109375Q243.39372 94.625 242.3156 94.625Q241.54997 94.625 240.95622 94.359375Q240.3781 94.078125 240.04997 93.59375Q239.72185 93.109375 239.72185 92.546875L240.79997 92.546875Q240.83122 93.09375 241.23747 93.421875Q241.64372 93.734375 242.3156 93.734375Q242.92497 93.734375 243.29997 93.484375Q243.67497 93.234375 243.67497 92.8125Z" fill-rule="nonzero"/><path fill="#ffffff" d="M199.01872 90.75Q198.6906 91.15625 198.20622 91.40625Q197.73747 91.640625 197.17497 91.640625Q196.4406 91.640625 195.89372 91.28125Q195.34685 90.921875 195.04997 90.265625Q194.7531 89.59375 194.7531 88.796875Q194.7531 87.953125 195.0656 87.265625Q195.39372 86.578125 195.98747 86.21875Q196.59685 85.84375 197.39372 85.84375Q198.65935 85.84375 199.3781 86.796875Q200.11247 87.75 200.11247 89.375L200.11247 89.6875Q200.11247 92.1875 199.1281 93.328125Q198.14372 94.46875 196.15935 94.5L195.9406 94.5L195.9406 93.59375L196.17497 93.59375Q197.51872 93.5625 198.23747 92.890625Q198.95622 92.21875 199.01872 90.75ZM197.34685 90.75Q197.89372 90.75 198.34685 90.421875Q198.8156 90.078125 199.03435 89.59375L199.03435 89.15625Q199.03435 88.09375 198.5656 87.421875Q198.09685 86.75 197.39372 86.75Q196.67497 86.75 196.23747 87.296875Q195.8156 87.84375 195.8156 88.75Q195.8156 89.625 196.22185 90.1875Q196.64372 90.75 197.34685 90.75ZM207.3781 86.578125L203.84685 94.5L202.70622 94.5L206.22185 86.859375L201.61247 86.859375L201.61247 85.96875L207.3781 85.96875L207.3781 86.578125ZM209.0031 93.9375Q209.0031 93.65625 209.15935 93.46875Q209.33122 93.28125 209.65935 93.28125Q210.0031 93.28125 210.17497 93.46875Q210.34685 93.65625 210.34685 93.9375Q210.34685 94.203125 210.17497 94.390625Q210.0031 94.5625 209.65935 94.5625Q209.33122 94.5625 209.15935 94.390625Q209.0031 94.203125 209.0031 93.9375ZM217.04997 88.1875Q217.04997 88.828125 216.70622 89.328125Q216.36247 89.828125 215.79997 90.109375Q216.45622 90.390625 216.84685 90.953125Q217.23747 91.5 217.23747 92.203125Q217.23747 93.296875 216.48747 93.96875Q215.7531 94.625 214.53435 94.625Q213.29997 94.625 212.54997 93.96875Q211.8156 93.296875 211.8156 92.203125Q211.8156 91.5 212.1906 90.953125Q212.5656 90.390625 213.23747 90.109375Q212.67497 89.828125 212.34685 89.328125Q212.01872 88.828125 212.01872 88.1875Q212.01872 87.109375 212.70622 86.484375Q213.39372 85.84375 214.53435 85.84375Q215.65935 85.84375 216.34685 86.484375Q217.04997 87.109375 217.04997 88.1875ZM216.15935 92.171875Q216.15935 91.453125 215.70622 91.015625Q215.2531 90.5625 214.51872 90.5625Q213.78435 90.5625 213.33122 91.015625Q212.89372 91.453125 212.89372 92.1875Q212.89372 92.90625 213.33122 93.328125Q213.76872 93.734375 214.53435 93.734375Q215.28435 93.734375 215.72185 93.3125Q216.15935 92.890625 216.15935 92.171875ZM214.53435 86.734375Q213.89372 86.734375 213.48747 87.140625Q213.09685 87.53125 213.09685 88.21875Q213.09685 88.859375 213.48747 89.265625Q213.8781 89.671875 214.51872 89.671875Q215.17497 89.671875 215.5656 89.265625Q215.95622 88.859375 215.95622 88.21875Q215.95622 87.5625 215.54997 87.15625Q215.14372 86.734375 214.53435 86.734375ZM224.45622 94.5L218.86247 94.5L218.86247 93.71875L221.8156 90.4375Q222.47185 89.6875 222.72185 89.234375Q222.97185 88.765625 222.97185 88.265625Q222.97185 87.59375 222.5656 87.171875Q222.17497 86.734375 221.48747 86.734375Q220.6906 86.734375 220.23747 87.203125Q219.78435 87.65625 219.78435 88.484375L218.70622 88.484375Q218.70622 87.296875 219.45622 86.578125Q220.22185 85.84375 221.48747 85.84375Q222.6906 85.84375 223.3781 86.46875Q224.0656 87.09375 224.0656 88.140625Q224.0656 89.390625 222.45622 91.140625L220.17497 93.609375L224.45622 93.609375L224.45622 94.5ZM230.0031 88.15625L230.03435 88.859375Q230.72185 88.046875 231.90935 88.046875Q233.23747 88.046875 233.72185 89.0625Q234.03435 88.609375 234.53435 88.328125Q235.04997 88.046875 235.73747 88.046875Q237.83122 88.046875 237.86247 90.25L237.86247 94.5L236.78435 94.5L236.78435 90.3125Q236.78435 89.640625 236.47185 89.3125Q236.15935 88.96875 235.42497 88.96875Q234.8156 88.96875 234.40935 89.328125Q234.01872 89.6875 233.95622 90.296875L233.95622 94.5L232.8781 94.5L232.8781 90.34375Q232.8781 88.96875 231.51872 88.96875Q230.45622 88.96875 230.0656 89.875L230.0656 94.5L228.97185 94.5L228.97185 88.15625L230.0031 88.15625ZM243.67497 92.8125Q243.67497 92.375 243.33122 92.140625Q243.0031 91.890625 242.17497 91.71875Q241.36247 91.546875 240.8781 91.296875Q240.39372 91.046875 240.15935 90.71875Q239.9406 90.375 239.9406 89.90625Q239.9406 89.125 240.59685 88.59375Q241.2531 88.046875 242.28435 88.046875Q243.36247 88.046875 244.01872 88.609375Q244.6906 89.15625 244.6906 90.015625L243.61247 90.015625Q243.61247 89.578125 243.22185 89.265625Q242.84685 88.9375 242.28435 88.9375Q241.6906 88.9375 241.34685 89.203125Q241.01872 89.453125 241.01872 89.859375Q241.01872 90.25 241.33122 90.453125Q241.64372 90.65625 242.45622 90.84375Q243.26872 91.015625 243.76872 91.265625Q244.26872 91.515625 244.5031 91.875Q244.7531 92.234375 244.7531 92.734375Q244.7531 93.59375 244.0656 94.109375Q243.39372 94.625 242.3156 94.625Q241.54997 94.625 240.95622 94.359375Q240.3781 94.078125 240.04997 93.59375Q239.72185 93.109375 239.72185 92.546875L240.79997 92.546875Q240.83122 93.09375 241.23747 93.421875Q241.64372 93.734375 242.3156 93.734375Q242.92497 93.734375 243.29997 93.484375Q243.67497 93.234375 243.67497 92.8125Z" fill-rule="nonzero"/><path stroke="#f3f3f3" stroke-width="3.0" stroke-linejoin="round" stroke-linecap="round" d="M449.8708 129.5L444.27704 129.5L444.27704 128.71875L447.23016 125.4375Q447.8864 124.6875 448.1364 124.234375Q448.3864 123.765625 448.3864 123.265625Q448.3864 122.59375 447.98016 122.171875Q447.58954 121.734375 446.90204 121.734375Q446.10516 121.734375 445.65204 122.203125Q445.1989 122.65625 445.1989 123.484375L444.1208 123.484375Q444.1208 122.296875 444.8708 121.578125Q445.6364 120.84375 446.90204 120.84375Q448.10516 120.84375 448.79266 121.46875Q449.48016 122.09375 449.48016 123.140625Q449.48016 124.390625 447.8708 126.140625L445.58954 128.60938L449.8708 128.60938L449.8708 129.5ZM451.77704 125.21875L452.21454 120.96875L456.58954 120.96875L456.58954 121.96875L453.1364 121.96875L452.8708 124.296875Q453.5114 123.921875 454.3083 123.921875Q455.46454 123.921875 456.15204 124.703125Q456.83954 125.46875 456.83954 126.78125Q456.83954 128.09375 456.1208 128.85938Q455.41766 129.625 454.1364 129.625Q453.0114 129.625 452.29266 129.0Q451.5739 128.35938 451.48016 127.25L452.4958 127.25Q452.60516 127.984375 453.02704 128.35938Q453.4489 128.73438 454.1364 128.73438Q454.8864 128.73438 455.3239 128.21875Q455.7614 127.703125 455.7614 126.796875Q455.7614 125.9375 455.29266 125.421875Q454.8239 124.90625 454.04266 124.90625Q453.33954 124.90625 452.9333 125.203125L452.65204 125.4375L451.77704 125.21875ZM463.6364 125.859375Q463.6364 127.765625 462.98016 128.70312Q462.33954 129.625 460.9489 129.625Q459.58954 129.625 458.9333 128.71875Q458.27704 127.8125 458.2458 126.0L458.2458 124.5625Q458.2458 122.671875 458.8864 121.765625Q459.54266 120.84375 460.9333 120.84375Q462.3083 120.84375 462.96454 121.734375Q463.6208 122.609375 463.6364 124.453125L463.6364 125.859375ZM462.54266 124.375Q462.54266 123.0 462.15204 122.375Q461.77704 121.734375 460.9333 121.734375Q460.10516 121.734375 459.71454 122.375Q459.33954 123.0 459.33954 124.296875L459.33954 126.03125Q459.33954 127.40625 459.73016 128.07812Q460.1364 128.73438 460.9489 128.73438Q461.7458 128.73438 462.1364 128.10938Q462.52704 127.484375 462.54266 126.15625L462.54266 124.375ZM465.41766 128.9375Q465.41766 128.65625 465.5739 128.46875Q465.7458 128.28125 466.0739 128.28125Q466.41766 128.28125 466.58954 128.46875Q466.7614 128.65625 466.7614 128.9375Q466.7614 129.20312 466.58954 129.39062Q466.41766 129.5625 466.0739 129.5625Q465.7458 129.5625 465.5739 129.39062Q465.41766 129.20312 465.41766 128.9375ZM472.54266 120.96875L472.54266 121.875L472.33954 121.875Q471.0739 121.90625 470.3239 122.640625Q469.5739 123.359375 469.4489 124.671875Q470.1364 123.90625 471.29266 123.90625Q472.40204 123.90625 473.0739 124.6875Q473.7458 125.46875 473.7458 126.71875Q473.7458 128.03125 473.02704 128.82812Q472.3083 129.625 471.08954 129.625Q469.8708 129.625 469.10516 128.6875Q468.35516 127.734375 468.35516 126.25L468.35516 125.84375Q468.35516 123.484375 469.35516 122.234375Q470.35516 120.984375 472.33954 120.96875L472.54266 120.96875ZM471.1208 124.8125Q470.5583 124.8125 470.08954 125.140625Q469.6208 125.46875 469.4333 125.984375L469.4333 126.375Q469.4333 127.4375 469.90204 128.07812Q470.3864 128.71875 471.08954 128.71875Q471.8239 128.71875 472.2458 128.1875Q472.66766 127.640625 472.66766 126.765625Q472.66766 125.890625 472.2458 125.359375Q471.8239 124.8125 471.1208 124.8125ZM479.54266 120.96875L479.54266 121.875L479.33954 121.875Q478.0739 121.90625 477.3239 122.640625Q476.5739 123.359375 476.4489 124.671875Q477.1364 123.90625 478.29266 123.90625Q479.40204 123.90625 480.0739 124.6875Q480.7458 125.46875 480.7458 126.71875Q480.7458 128.03125 480.02704 128.82812Q479.3083 129.625 478.08954 129.625Q476.8708 129.625 476.10516 128.6875Q475.35516 127.734375 475.35516 126.25L475.35516 125.84375Q475.35516 123.484375 476.35516 122.234375Q477.35516 120.984375 479.33954 120.96875L479.54266 120.96875ZM478.1208 124.8125Q477.5583 124.8125 477.08954 125.140625Q476.6208 125.46875 476.4333 125.984375L476.4333 126.375Q476.4333 127.4375 476.90204 128.07812Q477.3864 128.71875 478.08954 128.71875Q478.8239 128.71875 479.2458 128.1875Q479.66766 127.640625 479.66766 126.765625Q479.66766 125.890625 479.2458 125.359375Q478.8239 124.8125 478.1208 124.8125ZM486.41766 123.15625L486.4489 123.859375Q487.1364 123.046875 488.3239 123.046875Q489.65204 123.046875 490.1364 124.0625Q490.4489 123.609375 490.9489 123.328125Q491.46454 123.046875 492.15204 123.046875Q494.2458 123.046875 494.27704 125.25L494.27704 129.5L493.1989 129.5L493.1989 125.3125Q493.1989 124.640625 492.8864 124.3125Q492.5739 123.96875 491.83954 123.96875Q491.23016 123.96875 490.8239 124.328125Q490.4333 124.6875 490.3708 125.296875L490.3708 129.5L489.29266 129.5L489.29266 125.34375Q489.29266 123.96875 487.9333 123.96875Q486.8708 123.96875 486.48016 124.875L486.48016 129.5L485.3864 129.5L485.3864 123.15625L486.41766 123.15625ZM500.08954 127.8125Q500.08954 127.375 499.7458 127.140625Q499.41766 126.890625 498.58954 126.71875Q497.77704 126.546875 497.29266 126.296875Q496.8083 126.046875 496.5739 125.71875Q496.35516 125.375 496.35516 124.90625Q496.35516 124.125 497.0114 123.59375Q497.66766 123.046875 498.6989 123.046875Q499.77704 123.046875 500.4333 123.609375Q501.10516 124.15625 501.10516 125.015625L500.02704 125.015625Q500.02704 124.578125 499.6364 124.265625Q499.2614 123.9375 498.6989 123.9375Q498.10516 123.9375 497.7614 124.203125Q497.4333 124.453125 497.4333 124.859375Q497.4333 125.25 497.7458 125.453125Q498.0583 125.65625 498.8708 125.84375Q499.6833 126.015625 500.1833 126.265625Q500.6833 126.515625 500.91766 126.875Q501.16766 127.234375 501.16766 127.734375Q501.16766 128.59375 500.48016 129.10938Q499.8083 129.625 498.73016 129.625Q497.96454 129.625 497.3708 129.35938Q496.79266 129.07812 496.46454 128.59375Q496.1364 128.10938 496.1364 127.546875L497.21454 127.546875Q497.2458 128.09375 497.65204 128.42188Q498.0583 128.73438 498.73016 128.73438Q499.33954 128.73438 499.71454 128.48438Q500.08954 128.23438 500.08954 127.8125Z" fill-rule="nonzero"/><path fill="#000000" d="M449.8708 129.5L444.27704 129.5L444.27704 128.71875L447.23016 125.4375Q447.8864 124.6875 448.1364 124.234375Q448.3864 123.765625 448.3864 123.265625Q448.3864 122.59375 447.98016 122.171875Q447.58954 121.734375 446.90204 121.734375Q446.10516 121.734375 445.65204 122.203125Q445.1989 122.65625 445.1989 123.484375L444.1208 123.484375Q444.1208 122.296875 444.8708 121.578125Q445.6364 120.84375 446.90204 120.84375Q448.10516 120.84375 448.79266 121.46875Q449.48016 122.09375 449.48016 123.140625Q449.48016 124.390625 447.8708 126.140625L445.58954 128.60938L449.8708 128.60938L449.8708 129.5ZM451.77704 125.21875L452.21454 120.96875L456.58954 120.96875L456.58954 121.96875L453.1364 121.96875L452.8708 124.296875Q453.5114 123.921875 454.3083 123.921875Q455.46454 123.921875 456.15204 124.703125Q456.83954 125.46875 456.83954 126.78125Q456.83954 128.09375 456.1208 128.85938Q455.41766 129.625 454.1364 129.625Q453.0114 129.625 452.29266 129.0Q451.5739 128.35938 451.48016 127.25L452.4958 127.25Q452.60516 127.984375 453.02704 128.35938Q453.4489 128.73438 454.1364 128.73438Q454.8864 128.73438 455.3239 128.21875Q455.7614 127.703125 455.7614 126.796875Q455.7614 125.9375 455.29266 125.421875Q454.8239 124.90625 454.04266 124.90625Q453.33954 124.90625 452.9333 125.203125L452.65204 125.4375L451.77704 125.21875ZM463.6364 125.859375Q463.6364 127.765625 462.98016 128.70312Q462.33954 129.625 460.9489 129.625Q459.58954 129.625 458.9333 128.71875Q458.27704 127.8125 458.2458 126.0L458.2458 124.5625Q458.2458 122.671875 458.8864 121.765625Q459.54266 120.84375 460.9333 120.84375Q462.3083 120.84375 462.96454 121.734375Q463.6208 122.609375 463.6364 124.453125L463.6364 125.859375ZM462.54266 124.375Q462.54266 123.0 462.15204 122.375Q461.77704 121.734375 460.9333 121.734375Q460.10516 121.734375 459.71454 122.375Q459.33954 123.0 459.33954 124.296875L459.33954 126.03125Q459.33954 127.40625 459.73016 128.07812Q460.1364 128.73438 460.9489 128.73438Q461.7458 128.73438 462.1364 128.10938Q462.52704 127.484375 462.54266 126.15625L462.54266 124.375ZM465.41766 128.9375Q465.41766 128.65625 465.5739 128.46875Q465.7458 128.28125 466.0739 128.28125Q466.41766 128.28125 466.58954 128.46875Q466.7614 128.65625 466.7614 128.9375Q466.7614 129.20312 466.58954 129.39062Q466.41766 129.5625 466.0739 129.5625Q465.7458 129.5625 465.5739 129.39062Q465.41766 129.20312 465.41766 128.9375ZM472.54266 120.96875L472.54266 121.875L472.33954 121.875Q471.0739 121.90625 470.3239 122.640625Q469.5739 123.359375 469.4489 124.671875Q470.1364 123.90625 471.29266 123.90625Q472.40204 123.90625 473.0739 124.6875Q473.7458 125.46875 473.7458 126.71875Q473.7458 128.03125 473.02704 128.82812Q472.3083 129.625 471.08954 129.625Q469.8708 129.625 469.10516 128.6875Q468.35516 127.734375 468.35516 126.25L468.35516 125.84375Q468.35516 123.484375 469.35516 122.234375Q470.35516 120.984375 472.33954 120.96875L472.54266 120.96875ZM471.1208 124.8125Q470.5583 124.8125 470.08954 125.140625Q469.6208 125.46875 469.4333 125.984375L469.4333 126.375Q469.4333 127.4375 469.90204 128.07812Q470.3864 128.71875 471.08954 128.71875Q471.8239 128.71875 472.2458 128.1875Q472.66766 127.640625 472.66766 126.765625Q472.66766 125.890625 472.2458 125.359375Q471.8239 124.8125 471.1208 124.8125ZM479.54266 120.96875L479.54266 121.875L479.33954 121.875Q478.0739 121.90625 477.3239 122.640625Q476.5739 123.359375 476.4489 124.671875Q477.1364 123.90625 478.29266 123.90625Q479.40204 123.90625 480.0739 124.6875Q480.7458 125.46875 480.7458 126.71875Q480.7458 128.03125 480.02704 128.82812Q479.3083 129.625 478.08954 129.625Q476.8708 129.625 476.10516 128.6875Q475.35516 127.734375 475.35516 126.25L475.35516 125.84375Q475.35516 123.484375 476.35516 122.234375Q477.35516 120.984375 479.33954 120.96875L479.54266 120.96875ZM478.1208 124.8125Q477.5583 124.8125 477.08954 125.140625Q476.6208 125.46875 476.4333 125.984375L476.4333 126.375Q476.4333 127.4375 476.90204 128.07812Q477.3864 128.71875 478.08954 128.71875Q478.8239 128.71875 479.2458 128.1875Q479.66766 127.640625 479.66766 126.765625Q479.66766 125.890625 479.2458 125.359375Q478.8239 124.8125 478.1208 124.8125ZM486.41766 123.15625L486.4489 123.859375Q487.1364 123.046875 488.3239 123.046875Q489.65204 123.046875 490.1364 124.0625Q490.4489 123.609375 490.9489 123.328125Q491.46454 123.046875 492.15204 123.046875Q494.2458 123.046875 494.27704 125.25L494.27704 129.5L493.1989 129.5L493.1989 125.3125Q493.1989 124.640625 492.8864 124.3125Q492.5739 123.96875 491.83954 123.96875Q491.23016 123.96875 490.8239 124.328125Q490.4333 124.6875 490.3708 125.296875L490.3708 129.5L489.29266 129.5L489.29266 125.34375Q489.29266 123.96875 487.9333 123.96875Q486.8708 123.96875 486.48016 124.875L486.48016 129.5L485.3864 129.5L485.3864 123.15625L486.41766 123.15625ZM500.08954 127.8125Q500.08954 127.375 499.7458 127.140625Q499.41766 126.890625 498.58954 126.71875Q497.77704 126.546875 497.29266 126.296875Q496.8083 126.046875 496.5739 125.71875Q496.35516 125.375 496.35516 124.90625Q496.35516 124.125 497.0114 123.59375Q497.66766 123.046875 498.6989 123.046875Q499.77704 123.046875 500.4333 123.609375Q501.10516 124.15625 501.10516 125.015625L500.02704 125.015625Q500.02704 124.578125 499.6364 124.265625Q499.2614 123.9375 498.6989 123.9375Q498.10516 123.9375 497.7614 124.203125Q497.4333 124.453125 497.4333 124.859375Q497.4333 125.25 497.7458 125.453125Q498.0583 125.65625 498.8708 125.84375Q499.6833 126.015625 500.1833 126.265625Q500.6833 126.515625 500.91766 126.875Q501.16766 127.234375 501.16766 127.734375Q501.16766 128.59375 500.48016 129.10938Q499.8083 129.625 498.73016 129.625Q497.96454 129.625 497.3708 129.35938Q496.79266 129.07812 496.46454 128.59375Q496.1364 128.10938 496.1364 127.546875L497.21454 127.546875Q497.2458 128.09375 497.65204 128.42188Q498.0583 128.73438 498.73016 128.73438Q499.33954 128.73438 499.71454 128.48438Q500.08954 128.23438 500.08954 127.8125Z" fill-rule="nonzero"/><path fill="#ffffff" d="M305.60938 203.15L305.60938 195.57187L302.78125 195.57187L302.78125 194.55624L309.59375 194.55624L309.59375 195.57187L306.75 195.57187L306.75 203.15L305.60938 203.15ZM310.29688 195.775L310.29688 194.55624L311.35938 194.55624L311.35938 195.775L310.29688 195.775ZM310.29688 203.15L310.29688 196.93124L311.35938 196.93124L311.35938 203.15L310.29688 203.15ZM313.29688 203.15L313.29688 196.93124L314.23438 196.93124L314.23438 197.80624Q314.53125 197.3375 315.01562 197.07187Q315.5 196.79062 316.125 196.79062Q316.8125 196.79062 317.25 197.07187Q317.70312 197.35312 317.875 197.86874Q318.625 196.79062 319.79688 196.79062Q320.73438 196.79062 321.21875 197.30624Q321.71875 197.80624 321.71875 198.88437L321.71875 203.15L320.67188 203.15L320.67188 199.22812Q320.67188 198.60312 320.5625 198.32187Q320.46875 198.04062 320.20312 197.86874Q319.9375 197.69687 319.5625 197.69687Q318.90625 197.69687 318.46875 198.13437Q318.04688 198.57187 318.04688 199.54062L318.04688 203.15L316.98438 203.15L316.98438 199.10312Q316.98438 198.4 316.71875 198.05624Q316.46875 197.69687 315.89062 197.69687Q315.4375 197.69687 315.0625 197.93124Q314.6875 198.16562 314.51562 198.61874Q314.34375 199.07187 314.34375 199.91562L314.34375 203.15L313.29688 203.15ZM328.54688 201.15L329.64062 201.275Q329.39062 202.22812 328.6875 202.75937Q327.98438 203.29062 326.90625 203.29062Q325.54688 203.29062 324.73438 202.44687Q323.9375 201.60312 323.9375 200.0875Q323.9375 198.525 324.75 197.66562Q325.5625 196.79062 326.84375 196.79062Q328.09375 196.79062 328.875 197.63437Q329.67188 198.47812 329.67188 200.025Q329.67188 200.11874 329.67188 200.30624L325.03125 200.30624Q325.09375 201.3375 325.60938 201.88437Q326.125 202.41562 326.90625 202.41562Q327.48438 202.41562 327.89062 202.11874Q328.3125 201.80624 328.54688 201.15ZM325.09375 199.44687L328.5625 199.44687Q328.5 198.65 328.17188 198.25937Q327.65625 197.65 326.85938 197.65Q326.125 197.65 325.625 198.13437Q325.14062 198.61874 325.09375 199.44687ZM336.3125 205.68124Q335.4375 204.57187 334.82812 203.10312Q334.23438 201.61874 334.23438 200.04062Q334.23438 198.65 334.67188 197.36874Q335.20312 195.88437 336.3125 194.41562L337.0625 194.41562Q336.35938 195.63437 336.125 196.15Q335.76562 196.9625 335.5625 197.8375Q335.3125 198.93124 335.3125 200.04062Q335.3125 202.86874 337.0625 205.68124L336.3125 205.68124ZM338.29688 195.775L338.29688 194.55624L339.35938 194.55624L339.35938 195.775L338.29688 195.775ZM338.29688 203.15L338.29688 196.93124L339.35938 196.93124L339.35938 203.15L338.29688 203.15ZM341.29688 203.15L341.29688 196.93124L342.23438 196.93124L342.23438 197.80624Q342.92188 196.79062 344.21875 196.79062Q344.78125 196.79062 345.25 196.99374Q345.73438 197.19687 345.96875 197.525Q346.20312 197.85312 346.29688 198.29062Q346.34375 198.5875 346.34375 199.32187L346.34375 203.15L345.29688 203.15L345.29688 199.36874Q345.29688 198.7125 345.17188 198.4Q345.04688 198.0875 344.73438 197.9Q344.42188 197.69687 344.0 197.69687Q343.32812 197.69687 342.82812 198.13437Q342.34375 198.55624 342.34375 199.74374L342.34375 203.15L341.29688 203.15ZM351.29688 203.15L351.29688 196.93124L352.23438 196.93124L352.23438 197.80624Q352.53125 197.3375 353.01562 197.07187Q353.5 196.79062 354.125 196.79062Q354.8125 196.79062 355.25 197.07187Q355.70312 197.35312 355.875 197.86874Q356.625 196.79062 357.79688 196.79062Q358.73438 196.79062 359.21875 197.30624Q359.71875 197.80624 359.71875 198.88437L359.71875 203.15L358.67188 203.15L358.67188 199.22812Q358.67188 198.60312 358.5625 198.32187Q358.46875 198.04062 358.20312 197.86874Q357.9375 197.69687 357.5625 197.69687Q356.90625 197.69687 356.46875 198.13437Q356.04688 198.57187 356.04688 199.54062L356.04688 203.15L354.98438 203.15L354.98438 199.10312Q354.98438 198.4 354.71875 198.05624Q354.46875 197.69687 353.89062 197.69687Q353.4375 197.69687 353.0625 197.93124Q352.6875 198.16562 352.51562 198.61874Q352.34375 199.07187 352.34375 199.91562L352.34375 203.15L351.29688 203.15ZM361.875 201.29062L362.90625 201.13437Q363.0 201.75937 363.39062 202.0875Q363.79688 202.41562 364.53125 202.41562Q365.25 202.41562 365.59375 202.13437Q365.95312 201.8375 365.95312 201.43124Q365.95312 201.07187 365.64062 200.86874Q365.42188 200.72812 364.5625 200.50937Q363.40625 200.2125 362.95312 200.00937Q362.51562 199.79062 362.28125 199.41562Q362.04688 199.04062 362.04688 198.57187Q362.04688 198.16562 362.23438 197.80624Q362.42188 197.44687 362.75 197.2125Q363.0 197.04062 363.42188 196.91562Q363.84375 196.79062 364.34375 196.79062Q365.0625 196.79062 365.60938 197.00937Q366.17188 197.2125 366.4375 197.57187Q366.70312 197.93124 366.79688 198.525L365.76562 198.66562Q365.70312 198.19687 365.35938 197.93124Q365.03125 197.65 364.40625 197.65Q363.6875 197.65 363.375 197.9Q363.0625 198.13437 363.0625 198.4625Q363.0625 198.66562 363.1875 198.82187Q363.32812 198.99374 363.59375 199.10312Q363.75 199.16562 364.53125 199.36874Q365.65625 199.68124 366.09375 199.86874Q366.53125 200.05624 366.78125 200.41562Q367.03125 200.775 367.03125 201.32187Q367.03125 201.85312 366.71875 202.32187Q366.42188 202.775 365.84375 203.04062Q365.26562 203.29062 364.53125 203.29062Q363.3125 203.29062 362.67188 202.79062Q362.04688 202.275 361.875 201.29062ZM369.98438 205.68124L369.23438 205.68124Q370.98438 202.86874 370.98438 200.04062Q370.98438 198.94687 370.73438 197.85312Q370.53125 196.97812 370.17188 196.16562Q369.9375 195.65 369.23438 194.41562L369.98438 194.41562Q371.07812 195.88437 371.60938 197.36874Q372.0625 198.65 372.0625 200.04062Q372.0625 201.61874 371.45312 203.10312Q370.84375 204.57187 369.98438 205.68124Z" fill-rule="nonzero"/><path fill="#ffffff" d="M11.771875 94.012054L11.771875 85.418304L12.928125 85.418304L17.44375 92.168304L17.44375 85.418304L18.5375 85.418304L18.5375 94.012054L17.365625 94.012054L12.85 87.262054L12.85 94.012054L11.771875 94.012054ZM20.25625 90.90268Q20.25625 89.168304 21.209375 88.34018Q22.00625 87.65268 23.1625 87.65268Q24.44375 87.65268 25.25625 88.49643Q26.084375 89.324554 26.084375 90.80893Q26.084375 92.012054 25.725 92.699554Q25.365625 93.387054 24.6625 93.77768Q23.975 94.15268 23.1625 94.15268Q21.865625 94.15268 21.053125 93.324554Q20.25625 92.480804 20.25625 90.90268ZM21.334375 90.90268Q21.334375 92.09018 21.85 92.68393Q22.38125 93.27768 23.1625 93.27768Q23.959375 93.27768 24.475 92.68393Q24.990625 92.09018 24.990625 90.87143Q24.990625 89.71518 24.459375 89.12143Q23.94375 88.52768 23.1625 88.52768Q22.38125 88.52768 21.85 89.12143Q21.334375 89.699554 21.334375 90.90268ZM27.646875 94.012054L27.646875 87.793304L28.584375 87.793304L28.584375 88.668304Q29.271875 87.65268 30.56875 87.65268Q31.13125 87.65268 31.6 87.855804Q32.084373 88.05893 32.31875 88.387054Q32.553123 88.71518 32.646873 89.15268Q32.69375 89.449554 32.69375 90.18393L32.69375 94.012054L31.646875 94.012054L31.646875 90.230804Q31.646875 89.574554 31.521875 89.262054Q31.396875 88.949554 31.084375 88.762054Q30.771875 88.55893 30.35 88.55893Q29.678125 88.55893 29.178125 88.99643Q28.69375 89.418304 28.69375 90.605804L28.69375 94.012054L27.646875 94.012054ZM37.740623 94.012054L37.740623 85.418304L39.459373 85.418304L41.490623 91.49643Q41.771873 92.355804 41.896873 92.77768Q42.0375 92.30893 42.35 91.40268L44.4125 85.418304L45.94375 85.418304L45.94375 94.012054L44.85 94.012054L44.85 86.824554L42.35 94.012054L41.31875 94.012054L38.834373 86.699554L38.834373 94.012054L37.740623 94.012054ZM50.709373 93.24643Q50.115623 93.74643 49.56875 93.949554Q49.0375 94.15268 48.4125 94.15268Q47.38125 94.15268 46.834373 93.65268Q46.2875 93.15268 46.2875 92.37143Q46.2875 91.918304 46.490623 91.543304Q46.69375 91.15268 47.0375 90.93393Q47.38125 90.699554 47.803123 90.59018Q48.1 90.49643 48.740623 90.418304Q50.00625 90.27768 50.615623 90.05893Q50.615623 89.84018 50.615623 89.793304Q50.615623 89.137054 50.31875 88.87143Q49.9125 88.52768 49.115623 88.52768Q48.38125 88.52768 48.021873 88.793304Q47.6625 89.043304 47.490623 89.699554L46.459373 89.55893Q46.6 88.90268 46.928123 88.49643Q47.25625 88.09018 47.865623 87.87143Q48.475 87.65268 49.271873 87.65268Q50.06875 87.65268 50.56875 87.84018Q51.06875 88.02768 51.303123 88.30893Q51.5375 88.59018 51.63125 89.02768Q51.678123 89.293304 51.678123 89.99643L51.678123 91.40268Q51.678123 92.87143 51.740623 93.262054Q51.81875 93.65268 52.021873 94.012054L50.9125 94.012054Q50.75625 93.68393 50.709373 93.24643ZM50.615623 90.887054Q50.0375 91.12143 48.896873 91.293304Q48.240623 91.387054 47.975 91.512054Q47.709373 91.62143 47.553123 91.84018Q47.4125 92.05893 47.4125 92.34018Q47.4125 92.762054 47.725 93.043304Q48.053123 93.324554 48.6625 93.324554Q49.271873 93.324554 49.740623 93.05893Q50.225 92.793304 50.44375 92.324554Q50.615623 91.96518 50.615623 91.27768L50.615623 90.887054ZM55.94375 93.074554L56.1 93.99643Q55.646873 94.09018 55.303123 94.09018Q54.725 94.09018 54.4125 93.918304Q54.1 93.730804 53.959373 93.43393Q53.834373 93.137054 53.834373 92.18393L53.834373 88.605804L53.06875 88.605804L53.06875 87.793304L53.834373 87.793304L53.834373 86.24643L54.88125 85.62143L54.88125 87.793304L55.94375 87.793304L55.94375 88.605804L54.88125 88.605804L54.88125 92.24643Q54.88125 92.699554 54.928123 92.824554Q54.990623 92.949554 55.115623 93.02768Q55.240623 93.105804 55.475 93.105804Q55.6625 93.105804 55.94375 93.074554ZM60.896873 92.012054L61.990623 92.137054Q61.740623 93.09018 61.0375 93.62143Q60.334373 94.15268 59.25625 94.15268Q57.896873 94.15268 57.084373 93.30893Q56.2875 92.46518 56.2875 90.949554Q56.2875 89.387054 57.1 88.52768Q57.9125 87.65268 59.19375 87.65268Q60.44375 87.65268 61.225 88.49643Q62.021873 89.34018 62.021873 90.887054Q62.021873 90.980804 62.021873 91.168304L57.38125 91.168304Q57.44375 92.199554 57.959373 92.74643Q58.475 93.27768 59.25625 93.27768Q59.834373 93.27768 60.240623 92.980804Q60.6625 92.668304 60.896873 92.012054ZM57.44375 90.30893L60.9125 90.30893Q60.85 89.512054 60.521873 89.12143Q60.00625 88.512054 59.209373 88.512054Q58.475 88.512054 57.975 88.99643Q57.490623 89.480804 57.44375 90.30893ZM63.63125 94.012054L63.63125 87.793304L64.58437 87.793304L64.58437 88.730804Q64.94375 88.074554 65.24062 87.87143Q65.55312 87.65268 65.92812 87.65268Q66.45937 87.65268 67.00625 87.980804L66.64687 88.96518Q66.25625 88.730804 65.88125 88.730804Q65.52187 88.730804 65.24062 88.949554Q64.975 89.15268 64.86562 89.52768Q64.67812 90.09018 64.67812 90.74643L64.67812 94.012054L63.63125 94.012054ZM67.64687 86.637054L67.64687 85.418304L68.70937 85.418304L68.70937 86.637054L67.64687 86.637054ZM67.64687 94.012054L67.64687 87.793304L68.70937 87.793304L68.70937 94.012054L67.64687 94.012054ZM74.70937 93.24643Q74.11562 93.74643 73.56875 93.949554Q73.0375 94.15268 72.4125 94.15268Q71.38125 94.15268 70.83437 93.65268Q70.2875 93.15268 70.2875 92.37143Q70.2875 91.918304 70.49062 91.543304Q70.69375 91.15268 71.0375 90.93393Q71.38125 90.699554 71.80312 90.59018Q72.1 90.49643 72.74062 90.418304Q74.00625 90.27768 74.61562 90.05893Q74.61562 89.84018 74.61562 89.793304Q74.61562 89.137054 74.31875 88.87143Q73.9125 88.52768 73.11562 88.52768Q72.38125 88.52768 72.02187 88.793304Q71.6625 89.043304 71.49062 89.699554L70.45937 89.55893Q70.6 88.90268 70.92812 88.49643Q71.25625 88.09018 71.86562 87.87143Q72.475 87.65268 73.27187 87.65268Q74.06875 87.65268 74.56875 87.84018Q75.06875 88.02768 75.30312 88.30893Q75.5375 88.59018 75.63125 89.02768Q75.67812 89.293304 75.67812 89.99643L75.67812 91.40268Q75.67812 92.87143 75.74062 93.262054Q75.81875 93.65268 76.02187 94.012054L74.9125 94.012054Q74.75625 93.68393 74.70937 93.24643ZM74.61562 90.887054Q74.0375 91.12143 72.89687 91.293304Q72.24062 91.387054 71.975 91.512054Q71.70937 91.62143 71.55312 91.84018Q71.4125 92.05893 71.4125 92.34018Q71.4125 92.762054 71.725 93.043304Q72.05312 93.324554 72.6625 93.324554Q73.27187 93.324554 73.74062 93.05893Q74.225 92.793304 74.44375 92.324554Q74.61562 91.96518 74.61562 91.27768L74.61562 90.887054ZM77.61562 94.012054L77.61562 85.418304L78.67812 85.418304L78.67812 94.012054L77.61562 94.012054Z" fill-rule="nonzero"/><path fill="#ffffff" d="M37.740623 128.72128L37.740623 120.12753L39.459373 120.12753L41.490623 126.20566Q41.771873 127.06503 41.896873 127.48691Q42.0375 127.01816 42.35 126.11191L44.4125 120.12753L45.94375 120.12753L45.94375 128.72128L44.85 128.72128L44.85 121.53378L42.35 128.72128L41.31875 128.72128L38.834373 121.40878L38.834373 128.72128L37.740623 128.72128ZM50.709373 127.95566Q50.115623 128.45566 49.56875 128.65878Q49.0375 128.86191 48.4125 128.86191Q47.38125 128.86191 46.834373 128.36191Q46.2875 127.86191 46.2875 127.08066Q46.2875 126.62753 46.490623 126.25253Q46.69375 125.86191 47.0375 125.64316Q47.38125 125.40878 47.803123 125.29941Q48.1 125.20566 48.740623 125.12753Q50.00625 124.98691 50.615623 124.76816Q50.615623 124.54941 50.615623 124.50253Q50.615623 123.84628 50.31875 123.58066Q49.9125 123.23691 49.115623 123.23691Q48.38125 123.23691 48.021873 123.50253Q47.6625 123.75253 47.490623 124.40878L46.459373 124.26816Q46.6 123.61191 46.928123 123.20566Q47.25625 122.79941 47.865623 122.58066Q48.475 122.36191 49.271873 122.36191Q50.06875 122.36191 50.56875 122.54941Q51.06875 122.73691 51.303123 123.01816Q51.5375 123.29941 51.63125 123.73691Q51.678123 124.00253 51.678123 124.70566L51.678123 126.11191Q51.678123 127.58066 51.740623 127.97128Q51.81875 128.36191 52.021873 128.72128L50.9125 128.72128Q50.75625 128.39316 50.709373 127.95566ZM50.615623 125.59628Q50.0375 125.83066 48.896873 126.00253Q48.240623 126.09628 47.975 126.22128Q47.709373 126.33066 47.553123 126.54941Q47.4125 126.76816 47.4125 127.04941Q47.4125 127.47128 47.725 127.75253Q48.053123 128.03378 48.6625 128.03378Q49.271873 128.03378 49.740623 127.76816Q50.225 127.50253 50.44375 127.03378Q50.615623 126.67441 50.615623 125.98691L50.615623 125.59628ZM55.94375 127.78378L56.1 128.70566Q55.646873 128.79941 55.303123 128.79941Q54.725 128.79941 54.4125 128.62753Q54.1 128.44003 53.959373 128.14316Q53.834373 127.84628 53.834373 126.89316L53.834373 123.31503L53.06875 123.31503L53.06875 122.50253L53.834373 122.50253L53.834373 120.95566L54.88125 120.33066L54.88125 122.50253L55.94375 122.50253L55.94375 123.31503L54.88125 123.31503L54.88125 126.95566Q54.88125 127.40878 54.928123 127.53378Q54.990623 127.65878 55.115623 127.73691Q55.240623 127.81503 55.475 127.81503Q55.6625 127.81503 55.94375 127.78378ZM60.896873 126.72128L61.990623 126.84628Q61.740623 127.79941 61.0375 128.33066Q60.334373 128.86191 59.25625 128.86191Q57.896873 128.86191 57.084373 128.01816Q56.2875 127.17441 56.2875 125.65878Q56.2875 124.09628 57.1 123.23691Q57.9125 122.36191 59.19375 122.36191Q60.44375 122.36191 61.225 123.20566Q62.021873 124.04941 62.021873 125.59628Q62.021873 125.69003 62.021873 125.87753L57.38125 125.87753Q57.44375 126.90878 57.959373 127.45566Q58.475 127.98691 59.25625 127.98691Q59.834373 127.98691 60.240623 127.69003Q60.6625 127.37753 60.896873 126.72128ZM57.44375 125.01816L60.9125 125.01816Q60.85 124.22128 60.521873 123.83066Q60.00625 123.22128 59.209373 123.22128Q58.475 123.22128 57.975 123.70566Q57.490623 124.19003 57.44375 125.01816ZM63.63125 128.72128L63.63125 122.50253L64.58437 122.50253L64.58437 123.44003Q64.94375 122.78378 65.24062 122.58066Q65.55312 122.36191 65.92812 122.36191Q66.45937 122.36191 67.00625 122.69003L66.64687 123.67441Q66.25625 123.44003 65.88125 123.44003Q65.52187 123.44003 65.24062 123.65878Q64.975 123.86191 64.86562 124.23691Q64.67812 124.79941 64.67812 125.45566L64.67812 128.72128L63.63125 128.72128ZM67.64687 121.34628L67.64687 120.12753L68.70937 120.12753L68.70937 121.34628L67.64687 121.34628ZM67.64687 128.72128L67.64687 122.50253L68.70937 122.50253L68.70937 128.72128L67.64687 128.72128ZM74.70937 127.95566Q74.11562 128.45566 73.56875 128.65878Q73.0375 128.86191 72.4125 128.86191Q71.38125 128.86191 70.83437 128.36191Q70.2875 127.86191 70.2875 127.08066Q70.2875 126.62753 70.49062 126.25253Q70.69375 125.86191 71.0375 125.64316Q71.38125 125.40878 71.80312 125.29941Q72.1 125.20566 72.74062 125.12753Q74.00625 124.98691 74.61562 124.76816Q74.61562 124.54941 74.61562 124.50253Q74.61562 123.84628 74.31875 123.58066Q73.9125 123.23691 73.11562 123.23691Q72.38125 123.23691 72.02187 123.50253Q71.6625 123.75253 71.49062 124.40878L70.45937 124.26816Q70.6 123.61191 70.92812 123.20566Q71.25625 122.79941 71.86562 122.58066Q72.475 122.36191 73.27187 122.36191Q74.06875 122.36191 74.56875 122.54941Q75.06875 122.73691 75.30312 123.01816Q75.5375 123.29941 75.63125 123.73691Q75.67812 124.00253 75.67812 124.70566L75.67812 126.11191Q75.67812 127.58066 75.74062 127.97128Q75.81875 128.36191 76.02187 128.72128L74.9125 128.72128Q74.75625 128.39316 74.70937 127.95566ZM74.61562 125.59628Q74.0375 125.83066 72.89687 126.00253Q72.24062 126.09628 71.975 126.22128Q71.70937 126.33066 71.55312 126.54941Q71.4125 126.76816 71.4125 127.04941Q71.4125 127.47128 71.725 127.75253Q72.05312 128.03378 72.6625 128.03378Q73.27187 128.03378 73.74062 127.76816Q74.225 127.50253 74.44375 127.03378Q74.61562 126.67441 74.61562 125.98691L74.61562 125.59628ZM77.61562 128.72128L77.61562 120.12753L78.67812 120.12753L78.67812 128.72128L77.61562 128.72128Z" fill-rule="nonzero"/><path fill="#ffffff" d="M82.85 166.91562Q82.85 165.38437 83.1625 164.4625Q83.475 163.525 84.08437 163.025Q84.70937 162.525 85.64687 162.525Q86.33437 162.525 86.85 162.80624Q87.38125 163.0875 87.725 163.61874Q88.06875 164.13437 88.25625 164.88437Q88.44375 165.63437 88.44375 166.91562Q88.44375 168.43124 88.13125 169.35312Q87.83437 170.275 87.20937 170.79062Q86.6 171.29062 85.64687 171.29062Q84.4125 171.29062 83.69375 170.4Q82.85 169.3375 82.85 166.91562ZM83.92812 166.91562Q83.92812 169.025 84.42812 169.72812Q84.92812 170.43124 85.64687 170.43124Q86.38125 170.43124 86.86562 169.72812Q87.36562 169.025 87.36562 166.91562Q87.36562 164.79062 86.86562 164.10312Q86.38125 163.4 85.63125 163.4Q84.9125 163.4 84.475 164.00937Q83.92812 164.79062 83.92812 166.91562Z" fill-rule="nonzero"/><path fill="#ffffff" d="M247.58542 171.15L246.53854 171.15L246.53854 164.43124Q246.14792 164.79062 245.52292 165.16562Q244.91354 165.525 244.42917 165.69687L244.42917 164.68124Q245.30417 164.25937 245.96042 163.68124Q246.6323 163.0875 246.91354 162.525L247.58542 162.525L247.58542 171.15ZM250.61667 166.91562Q250.61667 165.38437 250.92917 164.4625Q251.24167 163.525 251.85104 163.025Q252.47604 162.525 253.41354 162.525Q254.10104 162.525 254.61667 162.80624Q255.14792 163.0875 255.49167 163.61874Q255.83542 164.13437 256.02292 164.88437Q256.21042 165.63437 256.21042 166.91562Q256.21042 168.43124 255.89792 169.35312Q255.60104 170.275 254.97604 170.79062Q254.36667 171.29062 253.41354 171.29062Q252.17917 171.29062 251.46042 170.4Q250.61667 169.3375 250.61667 166.91562ZM251.6948 166.91562Q251.6948 169.025 252.1948 169.72812Q252.6948 170.43124 253.41354 170.43124Q254.14792 170.43124 254.6323 169.72812Q255.1323 169.025 255.1323 166.91562Q255.1323 164.79062 254.6323 164.10312Q254.14792 163.4 253.39792 163.4Q252.67917 163.4 252.24167 164.00937Q251.6948 164.79062 251.6948 166.91562ZM257.61667 166.91562Q257.61667 165.38437 257.92917 164.4625Q258.24167 163.525 258.85104 163.025Q259.47604 162.525 260.41354 162.525Q261.10104 162.525 261.61667 162.80624Q262.14792 163.0875 262.49167 163.61874Q262.83542 164.13437 263.02292 164.88437Q263.21042 165.63437 263.21042 166.91562Q263.21042 168.43124 262.89792 169.35312Q262.60104 170.275 261.97604 170.79062Q261.36667 171.29062 260.41354 171.29062Q259.17917 171.29062 258.46042 170.4Q257.61667 169.3375 257.61667 166.91562ZM258.6948 166.91562Q258.6948 169.025 259.1948 169.72812Q259.6948 170.43124 260.41354 170.43124Q261.14792 170.43124 261.6323 169.72812Q262.1323 169.025 262.1323 166.91562Q262.1323 164.79062 261.6323 164.10312Q261.14792 163.4 260.39792 163.4Q259.67917 163.4 259.24167 164.00937Q258.6948 164.79062 258.6948 166.91562Z" fill-rule="nonzero"/><path fill="#ffffff" d="M416.9302 170.13437L416.9302 171.15L411.2427 171.15Q411.2427 170.775 411.3677 170.41562Q411.58646 169.8375 412.0552 169.275Q412.53958 168.7125 413.44583 167.97812Q414.85208 166.82187 415.33646 166.15Q415.83646 165.47812 415.83646 164.88437Q415.83646 164.25937 415.38333 163.8375Q414.9302 163.4 414.21146 163.4Q413.44583 163.4 412.9927 163.85312Q412.53958 164.30624 412.52396 165.11874L411.44583 165.00937Q411.5552 163.79062 412.27396 163.16562Q413.00833 162.525 414.2427 162.525Q415.47708 162.525 416.19583 163.2125Q416.91458 163.9 416.91458 164.91562Q416.91458 165.43124 416.69583 165.93124Q416.4927 166.41562 415.9927 166.97812Q415.50833 167.525 414.38333 168.47812Q413.4302 169.275 413.14896 169.57187Q412.88333 169.85312 412.71146 170.13437L416.9302 170.13437ZM418.38333 166.91562Q418.38333 165.38437 418.69583 164.4625Q419.00833 163.525 419.6177 163.025Q420.2427 162.525 421.1802 162.525Q421.8677 162.525 422.38333 162.80624Q422.91458 163.0875 423.25833 163.61874Q423.60208 164.13437 423.78958 164.88437Q423.97708 165.63437 423.97708 166.91562Q423.97708 168.43124 423.66458 169.35312Q423.3677 170.275 422.7427 170.79062Q422.13333 171.29062 421.1802 171.29062Q419.94583 171.29062 419.22708 170.4Q418.38333 169.3375 418.38333 166.91562ZM419.46146 166.91562Q419.46146 169.025 419.96146 169.72812Q420.46146 170.43124 421.1802 170.43124Q421.91458 170.43124 422.39896 169.72812Q422.89896 169.025 422.89896 166.91562Q422.89896 164.79062 422.39896 164.10312Q421.91458 163.4 421.16458 163.4Q420.44583 163.4 420.00833 164.00937Q419.46146 164.79062 419.46146 166.91562ZM425.38333 166.91562Q425.38333 165.38437 425.69583 164.4625Q426.00833 163.525 426.6177 163.025Q427.2427 162.525 428.1802 162.525Q428.8677 162.525 429.38333 162.80624Q429.91458 163.0875 430.25833 163.61874Q430.60208 164.13437 430.78958 164.88437Q430.97708 165.63437 430.97708 166.91562Q430.97708 168.43124 430.66458 169.35312Q430.3677 170.275 429.7427 170.79062Q429.13333 171.29062 428.1802 171.29062Q426.94583 171.29062 426.22708 170.4Q425.38333 169.3375 425.38333 166.91562ZM426.46146 166.91562Q426.46146 169.025 426.96146 169.72812Q427.46146 170.43124 428.1802 170.43124Q428.91458 170.43124 429.39896 169.72812Q429.89896 169.025 429.89896 166.91562Q429.89896 164.79062 429.39896 164.10312Q428.91458 163.4 428.16458 163.4Q427.44583 163.4 427.00833 164.00937Q426.46146 164.79062 426.46146 166.91562Z" fill-rule="nonzero"/><path fill="#ffffff" d="M579.15 168.88437L580.2125 168.74374Q580.3844 169.63437 580.8219 170.04062Q581.2594 170.43124 581.8844 170.43124Q582.6344 170.43124 583.15 169.91562Q583.66565 169.4 583.66565 168.63437Q583.66565 167.91562 583.1813 167.44687Q582.7125 166.9625 581.97815 166.9625Q581.6813 166.9625 581.22815 167.0875L581.35315 166.15Q581.4625 166.16562 581.525 166.16562Q582.1969 166.16562 582.72815 165.82187Q583.275 165.4625 583.275 164.72812Q583.275 164.15 582.8844 163.775Q582.4938 163.38437 581.8688 163.38437Q581.2594 163.38437 580.8375 163.775Q580.4313 164.16562 580.3219 164.93124L579.2594 164.74374Q579.4469 163.69687 580.1344 163.11874Q580.8219 162.525 581.8375 162.525Q582.54065 162.525 583.1344 162.8375Q583.72815 163.13437 584.04065 163.65Q584.35315 164.16562 584.35315 164.75937Q584.35315 165.30624 584.0563 165.775Q583.7594 166.22812 583.1813 166.49374Q583.9313 166.66562 584.35315 167.22812Q584.775 167.775 584.775 168.61874Q584.775 169.74374 583.9469 170.525Q583.1344 171.30624 581.8844 171.30624Q580.7594 171.30624 580.0094 170.63437Q579.2594 169.94687 579.15 168.88437ZM586.15 166.91562Q586.15 165.38437 586.4625 164.4625Q586.775 163.525 587.3844 163.025Q588.0094 162.525 588.9469 162.525Q589.6344 162.525 590.15 162.80624Q590.6813 163.0875 591.025 163.61874Q591.3688 164.13437 591.5563 164.88437Q591.7438 165.63437 591.7438 166.91562Q591.7438 168.43124 591.4313 169.35312Q591.1344 170.275 590.5094 170.79062Q589.9 171.29062 588.9469 171.29062Q587.7125 171.29062 586.9938 170.4Q586.15 169.3375 586.15 166.91562ZM587.22815 166.91562Q587.22815 169.025 587.72815 169.72812Q588.22815 170.43124 588.9469 170.43124Q589.6813 170.43124 590.16565 169.72812Q590.66565 169.025 590.66565 166.91562Q590.66565 164.79062 590.16565 164.10312Q589.6813 163.4 588.9313 163.4Q588.2125 163.4 587.775 164.00937Q587.22815 164.79062 587.22815 166.91562ZM593.15 166.91562Q593.15 165.38437 593.4625 164.4625Q593.775 163.525 594.3844 163.025Q595.0094 162.525 595.9469 162.525Q596.6344 162.525 597.15 162.80624Q597.6813 163.0875 598.025 163.61874Q598.3688 164.13437 598.5563 164.88437Q598.7438 165.63437 598.7438 166.91562Q598.7438 168.43124 598.4313 169.35312Q598.1344 170.275 597.5094 170.79062Q596.9 171.29062 595.9469 171.29062Q594.7125 171.29062 593.9938 170.4Q593.15 169.3375 593.15 166.91562ZM594.22815 166.91562Q594.22815 169.025 594.72815 169.72812Q595.22815 170.43124 595.9469 170.43124Q596.6813 170.43124 597.16565 169.72812Q597.66565 169.025 597.66565 166.91562Q597.66565 164.79062 597.16565 164.10312Q596.6813 163.4 595.9313 163.4Q595.2125 163.4 594.775 164.00937Q594.22815 164.79062 594.22815 166.91562Z" fill-rule="nonzero"/><path fill="#d9d9d9" d="M10.834375 56.35L14.678125 46.334373L16.1 46.334373L20.209375 56.35L18.69375 56.35L17.521875 53.31875L13.334375 53.31875L12.240625 56.35L10.834375 56.35ZM13.725 52.240623L17.115625 52.240623L16.06875 49.459373Q15.6 48.19375 15.365625 47.38125Q15.178125 48.35 14.81875 49.2875L13.725 52.240623ZM25.50625 53.69375L26.725 53.85Q26.521875 55.1 25.69375 55.81875Q24.88125 56.521873 23.69375 56.521873Q22.209375 56.521873 21.303125 55.553123Q20.396875 54.56875 20.396875 52.740623Q20.396875 51.56875 20.7875 50.69375Q21.178125 49.803123 21.975 49.365623Q22.771875 48.928123 23.709375 48.928123Q24.88125 48.928123 25.63125 49.521873Q26.396875 50.115623 26.6 51.225L25.4125 51.4125Q25.240625 50.678123 24.803125 50.31875Q24.365625 49.94375 23.75625 49.94375Q22.81875 49.94375 22.240625 50.615623Q21.6625 51.271873 21.6625 52.709373Q21.6625 54.178123 22.225 54.85Q22.7875 55.50625 23.678125 55.50625Q24.4125 55.50625 24.896875 55.06875Q25.38125 54.615623 25.50625 53.69375ZM30.459375 55.25625L30.63125 56.334373Q30.115625 56.44375 29.709375 56.44375Q29.0375 56.44375 28.6625 56.240623Q28.303125 56.021873 28.146875 55.678123Q28.00625 55.334373 28.00625 54.225L28.00625 50.053123L27.1 50.053123L27.1 49.084373L28.00625 49.084373L28.00625 47.2875L29.225 46.553123L29.225 49.084373L30.459375 49.084373L30.459375 50.053123L29.225 50.053123L29.225 54.2875Q29.225 54.81875 29.2875 54.975Q29.35 55.115623 29.490625 55.209373Q29.646875 55.303123 29.9125 55.303123Q30.13125 55.303123 30.459375 55.25625ZM31.7875 47.740623L31.7875 46.334373L33.00625 46.334373L33.00625 47.740623L31.7875 47.740623ZM31.7875 56.35L31.7875 49.084373L33.00625 49.084373L33.00625 56.35L31.7875 56.35ZM34.31875 52.725Q34.31875 50.709373 35.44375 49.725Q36.365623 48.928123 37.725 48.928123Q39.209373 48.928123 40.1625 49.9125Q41.115623 50.88125 41.115623 52.615623Q41.115623 54.021873 40.69375 54.834373Q40.271873 55.63125 39.459373 56.084373Q38.6625 56.521873 37.725 56.521873Q36.19375 56.521873 35.25625 55.5375Q34.31875 54.553123 34.31875 52.725ZM35.584373 52.725Q35.584373 54.115623 36.19375 54.81875Q36.803123 55.50625 37.725 55.50625Q38.63125 55.50625 39.240623 54.803123Q39.85 54.1 39.85 52.678123Q39.85 51.334373 39.240623 50.646873Q38.63125 49.94375 37.725 49.94375Q36.803123 49.94375 36.19375 50.63125Q35.584373 51.31875 35.584373 52.725ZM42.771873 56.35L42.771873 49.084373L43.88125 49.084373L43.88125 50.115623Q44.678123 48.928123 46.19375 48.928123Q46.85 48.928123 47.396873 49.1625Q47.94375 49.396873 48.209373 49.7875Q48.490623 50.1625 48.6 50.69375Q48.678123 51.0375 48.678123 51.88125L48.678123 56.35L47.44375 56.35L47.44375 51.928123Q47.44375 51.178123 47.303123 50.81875Q47.1625 50.44375 46.7875 50.225Q46.428123 49.990623 45.928123 49.990623Q45.146873 49.990623 44.56875 50.490623Q44.00625 50.990623 44.00625 52.38125L44.00625 56.35L42.771873 56.35ZM51.115623 50.490623L51.115623 49.084373L52.521873 49.084373L52.521873 50.490623L51.115623 50.490623ZM51.115623 56.35L51.115623 54.94375L52.521873 54.94375L52.521873 56.35L51.115623 56.35ZM58.88125 56.35L58.88125 46.334373L60.209373 46.334373L60.209373 55.1625L65.13125 55.1625L65.13125 56.35L58.88125 56.35ZM66.7875 47.740623L66.7875 46.334373L68.00625 46.334373L68.00625 47.740623L66.7875 47.740623ZM66.7875 56.35L66.7875 49.084373L68.00625 49.084373L68.00625 56.35L66.7875 56.35ZM69.55312 56.959373L70.74062 57.13125Q70.81875 57.678123 71.1625 57.94375Q71.61562 58.271873 72.4125 58.271873Q73.27187 58.271873 73.725 57.928123Q74.19375 57.6 74.36562 56.975Q74.45937 56.6 74.44375 55.396873Q73.64687 56.35 72.44375 56.35Q70.94375 56.35 70.11562 55.271873Q69.30312 54.19375 69.30312 52.678123Q69.30312 51.646873 69.67812 50.771873Q70.05312 49.88125 70.75625 49.4125Q71.475 48.928123 72.44375 48.928123Q73.725 48.928123 74.56875 49.959373L74.56875 49.084373L75.69375 49.084373L75.69375 55.365623Q75.69375 57.06875 75.35 57.771873Q75.00625 58.475 74.25625 58.88125Q73.50625 59.303123 72.4125 59.303123Q71.11562 59.303123 70.31875 58.709373Q69.52187 58.13125 69.55312 56.959373ZM70.56875 52.584373Q70.56875 54.021873 71.13125 54.678123Q71.69375 55.334373 72.55312 55.334373Q73.39687 55.334373 73.975 54.678123Q74.55312 54.021873 74.55312 52.63125Q74.55312 51.303123 73.95937 50.63125Q73.36562 49.94375 72.5375 49.94375Q71.70937 49.94375 71.13125 50.615623Q70.56875 51.271873 70.56875 52.584373ZM77.77187 56.35L77.77187 46.334373L79.00625 46.334373L79.00625 49.928123Q79.86562 48.928123 81.17812 48.928123Q81.99062 48.928123 82.58437 49.25625Q83.17812 49.56875 83.42812 50.13125Q83.69375 50.678123 83.69375 51.75625L83.69375 56.35L82.45937 56.35L82.45937 51.75625Q82.45937 50.81875 82.05312 50.4125Q81.6625 49.990623 80.92812 49.990623Q80.38125 49.990623 79.89687 50.271873Q79.4125 50.553123 79.20937 51.0375Q79.00625 51.521873 79.00625 52.38125L79.00625 56.35L77.77187 56.35ZM88.45937 55.25625L88.63125 56.334373Q88.11562 56.44375 87.70937 56.44375Q87.0375 56.44375 86.6625 56.240623Q86.30312 56.021873 86.14687 55.678123Q86.00625 55.334373 86.00625 54.225L86.00625 50.053123L85.1 50.053123L85.1 49.084373L86.00625 49.084373L86.00625 47.2875L87.225 46.553123L87.225 49.084373L88.45937 49.084373L88.45937 50.053123L87.225 50.053123L87.225 54.2875Q87.225 54.81875 87.2875 54.975Q87.35 55.115623 87.49062 55.209373Q87.64687 55.303123 87.9125 55.303123Q88.13125 55.303123 88.45937 55.25625ZM96.45937 55.25625L96.63125 56.334373Q96.11562 56.44375 95.70937 56.44375Q95.0375 56.44375 94.6625 56.240623Q94.30312 56.021873 94.14687 55.678123Q94.00625 55.334373 94.00625 54.225L94.00625 50.053123L93.1 50.053123L93.1 49.084373L94.00625 49.084373L94.00625 47.2875L95.225 46.553123L95.225 49.084373L96.45937 49.084373L96.45937 50.053123L95.225 50.053123L95.225 54.2875Q95.225 54.81875 95.2875 54.975Q95.35 55.115623 95.49062 55.209373Q95.64687 55.303123 95.9125 55.303123Q96.13125 55.303123 96.45937 55.25625ZM97.31875 52.725Q97.31875 50.709373 98.44375 49.725Q99.36562 48.928123 100.725 48.928123Q102.20937 48.928123 103.1625 49.9125Q104.11562 50.88125 104.11562 52.615623Q104.11562 54.021873 103.69375 54.834373Q103.27187 55.63125 102.45937 56.084373Q101.6625 56.521873 100.725 56.521873Q99.19375 56.521873 98.25625 55.5375Q97.31875 54.553123 97.31875 52.725ZM98.58437 52.725Q98.58437 54.115623 99.19375 54.81875Q99.80312 55.50625 100.725 55.50625Q101.63125 55.50625 102.24062 54.803123Q102.85 54.1 102.85 52.678123Q102.85 51.334373 102.24062 50.646873Q101.63125 49.94375 100.725 49.94375Q99.80312 49.94375 99.19375 50.63125Q98.58437 51.31875 98.58437 52.725ZM109.92812 56.35L109.92812 46.334373L113.38125 46.334373Q114.55312 46.334373 115.1625 46.475Q116.02187 46.6625 116.63125 47.19375Q117.42812 47.865623 117.81875 48.9125Q118.20937 49.94375 118.20937 51.2875Q118.20937 52.428123 117.94375 53.31875Q117.67812 54.19375 117.25625 54.771873Q116.85 55.35 116.35 55.678123Q115.85 56.00625 115.14687 56.178123Q114.45937 56.35 113.55312 56.35L109.92812 56.35ZM111.25625 55.1625L113.39687 55.1625Q114.38125 55.1625 114.94375 54.990623Q115.52187 54.803123 115.85 54.459373Q116.31875 53.990623 116.58437 53.19375Q116.85 52.396873 116.85 51.25625Q116.85 49.69375 116.33437 48.85Q115.81875 48.00625 115.08437 47.709373Q114.5375 47.50625 113.36562 47.50625L111.25625 47.50625L111.25625 55.1625ZM124.50625 55.459373Q123.83437 56.0375 123.19375 56.2875Q122.56875 56.521873 121.83437 56.521873Q120.64687 56.521873 119.99062 55.94375Q119.35 55.35 119.35 54.428123Q119.35 53.896873 119.58437 53.459373Q119.83437 53.021873 120.225 52.75625Q120.63125 52.490623 121.11562 52.35Q121.475 52.25625 122.20937 52.1625Q123.70937 51.990623 124.4125 51.740623Q124.4125 51.490623 124.4125 51.428123Q124.4125 50.6625 124.06875 50.365623Q123.6 49.94375 122.6625 49.94375Q121.80312 49.94375 121.38125 50.25625Q120.975 50.553123 120.77187 51.31875L119.56875 51.1625Q119.725 50.38125 120.1 49.9125Q120.49062 49.44375 121.19375 49.19375Q121.9125 48.928123 122.85 48.928123Q123.77187 48.928123 124.35 49.146873Q124.92812 49.365623 125.19375 49.69375Q125.475 50.021873 125.58437 50.5375Q125.64687 50.85 125.64687 51.6625L125.64687 53.303123Q125.64687 55.021873 125.725 55.475Q125.80312 55.928123 126.0375 56.35L124.75625 56.35Q124.56875 55.959373 124.50625 55.459373ZM124.4125 52.709373Q123.74062 52.975 122.39687 53.178123Q121.64687 53.2875 121.31875 53.428123Q121.00625 53.553123 120.83437 53.81875Q120.6625 54.084373 120.6625 54.396873Q120.6625 54.896873 121.0375 55.225Q121.4125 55.553123 122.13125 55.553123Q122.85 55.553123 123.39687 55.240623Q123.94375 54.928123 124.20937 54.38125Q124.4125 53.975 124.4125 53.1625L124.4125 52.709373ZM127.75625 56.35L127.75625 49.084373L128.86563 49.084373L128.86563 50.19375Q129.2875 49.4125 129.64688 49.178123Q130.00626 48.928123 130.44376 48.928123Q131.06876 48.928123 131.70938 49.31875L131.2875 50.459373Q130.83438 50.19375 130.38126 50.19375Q129.975 50.19375 129.64688 50.44375Q129.33438 50.678123 129.19376 51.115623Q128.99063 51.771873 128.99063 52.553123L128.99063 56.35L127.75625 56.35ZM132.7875 56.35L132.7875 46.334373L134.00626 46.334373L134.00626 52.0375L136.92813 49.084373L138.52188 49.084373L135.74063 51.7875L138.80313 56.35L137.27188 56.35L134.88126 52.63125L134.00626 53.475L134.00626 56.35L132.7875 56.35ZM143.89688 56.35L143.89688 46.334373L145.88126 46.334373L148.25626 53.428123Q148.58438 54.4125 148.74063 54.9125Q148.9125 54.365623 149.27188 53.303123L151.6625 46.334373L153.45938 46.334373L153.45938 56.35L152.17813 56.35L152.17813 47.959373L149.25626 56.35L148.06876 56.35L145.1625 47.81875L145.1625 56.35L143.89688 56.35ZM154.31876 52.725Q154.31876 50.709373 155.44376 49.725Q156.36563 48.928123 157.725 48.928123Q159.20938 48.928123 160.1625 49.9125Q161.11563 50.88125 161.11563 52.615623Q161.11563 54.021873 160.69376 54.834373Q160.27188 55.63125 159.45938 56.084373Q158.6625 56.521873 157.725 56.521873Q156.19376 56.521873 155.25626 55.5375Q154.31876 54.553123 154.31876 52.725ZM155.58438 52.725Q155.58438 54.115623 156.19376 54.81875Q156.80313 55.50625 157.725 55.50625Q158.63126 55.50625 159.24063 54.803123Q159.85 54.1 159.85 52.678123Q159.85 51.334373 159.24063 50.646873Q158.63126 49.94375 157.725 49.94375Q156.80313 49.94375 156.19376 50.63125Q155.58438 51.31875 155.58438 52.725ZM167.49063 56.35L167.49063 55.428123Q166.7875 56.521873 165.45938 56.521873Q164.58438 56.521873 163.85 56.0375Q163.13126 55.553123 162.725 54.69375Q162.33438 53.834373 162.33438 52.725Q162.33438 51.646873 162.69376 50.75625Q163.05313 49.865623 163.77188 49.396873Q164.50626 48.928123 165.39688 48.928123Q166.05313 48.928123 166.56876 49.209373Q167.08438 49.475 167.39688 49.928123L167.39688 46.334373L168.63126 46.334373L168.63126 56.35L167.49063 56.35ZM163.6 52.725Q163.6 54.115623 164.17813 54.81875Q164.77188 55.50625 165.56876 55.50625Q166.38126 55.50625 166.94376 54.85Q167.50626 54.178123 167.50626 52.834373Q167.50626 51.334373 166.92813 50.646873Q166.35 49.94375 165.52188 49.94375Q164.69376 49.94375 164.14688 50.615623Q163.6 51.2875 163.6 52.725ZM175.74063 54.00625L177.02188 54.1625Q176.70938 55.2875 175.89688 55.9125Q175.08438 56.521873 173.81876 56.521873Q172.225 56.521873 171.2875 55.5375Q170.36563 54.553123 170.36563 52.7875Q170.36563 50.94375 171.30313 49.94375Q172.25626 48.928123 173.75626 48.928123Q175.20938 48.928123 176.13126 49.928123Q177.05313 50.9125 177.05313 52.709373Q177.05313 52.81875 177.05313 53.0375L171.63126 53.0375Q171.70938 54.225 172.30313 54.865623Q172.9125 55.50625 173.83438 55.50625Q174.50626 55.50625 174.975 55.146873Q175.45938 54.7875 175.74063 54.00625ZM171.70938 52.021873L175.75626 52.021873Q175.67813 51.1 175.2875 50.646873Q174.70938 49.94375 173.77188 49.94375Q172.9125 49.94375 172.33438 50.50625Q171.77188 51.06875 171.70938 52.021873ZM182.475 53.13125L183.725 53.021873Q183.81876 53.771873 184.14688 54.25625Q184.475 54.740623 185.14688 55.0375Q185.83438 55.334373 186.69376 55.334373Q187.44376 55.334373 188.02188 55.115623Q188.61563 54.88125 188.89688 54.490623Q189.17813 54.1 189.17813 53.63125Q189.17813 53.1625 188.89688 52.81875Q188.63126 52.459373 188.00626 52.209373Q187.6 52.053123 186.20938 51.725Q184.83438 51.396873 184.2875 51.1Q183.56876 50.725 183.20938 50.178123Q182.86563 49.615623 182.86563 48.9125Q182.86563 48.1625 183.2875 47.50625Q183.725 46.834373 184.55313 46.50625Q185.38126 46.1625 186.39688 46.1625Q187.50626 46.1625 188.35 46.521873Q189.20938 46.88125 189.6625 47.584373Q190.11563 48.271873 190.1625 49.146873L188.88126 49.240623Q188.7875 48.303123 188.19376 47.81875Q187.6 47.31875 186.44376 47.31875Q185.24063 47.31875 184.69376 47.771873Q184.14688 48.209373 184.14688 48.834373Q184.14688 49.365623 184.5375 49.725Q184.9125 50.06875 186.52188 50.44375Q188.14688 50.803123 188.74063 51.06875Q189.61563 51.475 190.0375 52.1Q190.45938 52.709373 190.45938 53.521873Q190.45938 54.31875 189.99063 55.0375Q189.5375 55.740623 188.67813 56.13125Q187.81876 56.521873 186.75626 56.521873Q185.39688 56.521873 184.475 56.13125Q183.55313 55.725 183.02188 54.928123Q182.50626 54.13125 182.475 53.13125ZM193.11563 56.35L190.89688 49.084373L192.1625 49.084373L193.31876 53.2875L193.75626 54.834373Q193.77188 54.725 194.13126 53.334373L195.2875 49.084373L196.5375 49.084373L197.63126 53.303123L197.99063 54.69375L198.4125 53.2875L199.6625 49.084373L200.85 49.084373L198.58438 56.35L197.30313 56.35L196.14688 52.00625L195.86563 50.771873L194.39688 56.35L193.11563 56.35ZM200.7875 47.740623L200.7875 46.334373L202.00626 46.334373L202.00626 47.740623L200.7875 47.740623ZM200.7875 56.35L200.7875 49.084373L202.00626 49.084373L202.00626 56.35L200.7875 56.35ZM206.45938 55.25625L206.63126 56.334373Q206.11563 56.44375 205.70938 56.44375Q205.0375 56.44375 204.6625 56.240623Q204.30313 56.021873 204.14688 55.678123Q204.00626 55.334373 204.00626 54.225L204.00626 50.053123L203.1 50.053123L203.1 49.084373L204.00626 49.084373L204.00626 47.2875L205.225 46.553123L205.225 49.084373L206.45938 49.084373L206.45938 50.053123L205.225 50.053123L205.225 54.2875Q205.225 54.81875 205.2875 54.975Q205.35 55.115623 205.49063 55.209373Q205.64688 55.303123 205.9125 55.303123Q206.13126 55.303123 206.45938 55.25625ZM212.50626 53.69375L213.725 53.85Q213.52188 55.1 212.69376 55.81875Q211.88126 56.521873 210.69376 56.521873Q209.20938 56.521873 208.30313 55.553123Q207.39688 54.56875 207.39688 52.740623Q207.39688 51.56875 207.7875 50.69375Q208.17813 49.803123 208.975 49.365623Q209.77188 48.928123 210.70938 48.928123Q211.88126 48.928123 212.63126 49.521873Q213.39688 50.115623 213.6 51.225L212.4125 51.4125Q212.24063 50.678123 211.80313 50.31875Q211.36563 49.94375 210.75626 49.94375Q209.81876 49.94375 209.24063 50.615623Q208.6625 51.271873 208.6625 52.709373Q208.6625 54.178123 209.225 54.85Q209.7875 55.50625 210.67813 55.50625Q211.4125 55.50625 211.89688 55.06875Q212.38126 54.615623 212.50626 53.69375ZM214.77188 56.35L214.77188 46.334373L216.00626 46.334373L216.00626 49.928123Q216.86563 48.928123 218.17813 48.928123Q218.99063 48.928123 219.58438 49.25625Q220.17813 49.56875 220.42813 50.13125Q220.69376 50.678123 220.69376 51.75625L220.69376 56.35L219.45938 56.35L219.45938 51.75625Q219.45938 50.81875 219.05313 50.4125Q218.6625 49.990623 217.92813 49.990623Q217.38126 49.990623 216.89688 50.271873Q216.4125 50.553123 216.20938 51.0375Q216.00626 51.521873 216.00626 52.38125L216.00626 56.35L214.77188 56.35Z" fill-rule="nonzero"/><path fill="#f3f3f3" d="M107.0625 31.13125Q105.515625 31.13125 104.234375 30.6625Q102.953125 30.19375 102.046875 29.240625Q101.125 28.271875 100.625 26.85Q100.140625 25.4125 100.140625 23.56875Q100.140625 21.803125 100.625 20.4125Q101.125 19.021875 102.046875 18.0375Q102.9375 17.084375 104.234375 16.56875Q105.53125 16.0375 107.078125 16.0375Q107.8125 16.0375 108.484375 16.146875Q109.15625 16.25625 109.78125 16.44375Q110.265625 16.584375 110.859375 16.85Q111.46875 17.115625 111.828125 17.2875L111.828125 19.63125L111.671875 19.63125Q111.3125 19.303125 110.921875 19.021875Q110.53125 18.725 109.828125 18.396875Q109.25 18.1 108.484375 17.9125Q107.71875 17.709375 106.84375 17.709375Q104.75 17.709375 103.453125 19.303125Q102.15625 20.88125 102.15625 23.50625Q102.15625 24.975 102.5 26.06875Q102.84375 27.1625 103.484375 27.9125Q104.109375 28.678125 104.984375 29.06875Q105.875 29.459375 106.984375 29.459375Q107.796875 29.459375 108.609375 29.35Q109.421875 29.225 109.984375 28.990625L109.984375 25.240625L106.625 25.240625L106.625 23.5375L111.890625 23.5375L111.890625 29.88125Q111.515625 30.053125 110.890625 30.303125Q110.28125 30.553125 109.75 30.709375Q109.03125 30.9125 108.453125 31.021875Q107.875 31.13125 107.0625 31.13125ZM118.03125 31.115625Q116.453125 31.115625 115.34375 30.7875Q114.234375 30.459375 113.25 29.975L113.25 27.553125L113.390625 27.553125Q114.34375 28.459375 115.546875 28.959375Q116.765625 29.44375 117.890625 29.44375Q119.5 29.44375 120.3125 28.771875Q121.140625 28.1 121.140625 27.00625Q121.140625 26.146875 120.703125 25.6Q120.28125 25.053125 119.34375 24.7875Q118.65625 24.584375 118.09375 24.459375Q117.546875 24.334375 116.703125 24.115625Q115.953125 23.928125 115.359375 23.63125Q114.765625 23.31875 114.3125 22.834375Q113.859375 22.35 113.609375 21.709375Q113.359375 21.053125 113.359375 20.209375Q113.359375 18.44375 114.734375 17.240625Q116.109375 16.0375 118.25 16.0375Q119.46875 16.0375 120.5625 16.2875Q121.65625 16.5375 122.578125 16.975L122.578125 19.303125L122.4375 19.303125Q121.734375 18.6625 120.65625 18.19375Q119.578125 17.709375 118.375 17.709375Q117.03125 17.709375 116.203125 18.35Q115.375 18.975 115.375 20.00625Q115.375 20.928125 115.859375 21.475Q116.34375 22.021875 117.28125 22.271875Q117.890625 22.44375 118.78125 22.6625Q119.671875 22.865625 120.25 23.0375Q121.765625 23.490625 122.453125 24.428125Q123.140625 25.35 123.140625 26.709375Q123.140625 27.553125 122.796875 28.396875Q122.453125 29.225 121.828125 29.7875Q121.125 30.428125 120.234375 30.771875Q119.359375 31.115625 118.03125 31.115625ZM143.4375 30.85L141.5 30.85L141.5 18.31875L137.71875 26.85L136.54688 26.85L132.78125 18.31875L132.78125 30.85L130.96875 30.85L130.96875 16.303125L133.60938 16.303125L137.25 24.396875L140.75 16.303125L143.4375 16.303125L143.4375 30.85ZM151.92188 28.1625L151.92188 25.13125Q151.26562 25.19375 150.26562 25.303125Q149.26562 25.396875 148.65625 25.584375Q147.92188 25.803125 147.4375 26.271875Q146.96875 26.740625 146.96875 27.56875Q146.96875 28.50625 147.48438 28.990625Q148.01562 29.459375 149.03125 29.459375Q149.90625 29.459375 150.60938 29.084375Q151.3125 28.709375 151.92188 28.1625ZM151.92188 29.69375Q151.70312 29.85 151.32812 30.146875Q150.95312 30.44375 150.59375 30.63125Q150.10938 30.88125 149.65625 31.00625Q149.20312 31.146875 148.375 31.146875Q147.70312 31.146875 147.09375 30.896875Q146.5 30.646875 146.03125 30.178125Q145.59375 29.740625 145.32812 29.084375Q145.0625 28.4125 145.0625 27.678125Q145.0625 26.553125 145.54688 25.75625Q146.03125 24.959375 147.0625 24.490625Q147.98438 24.06875 149.23438 23.9125Q150.48438 23.75625 151.92188 23.678125L151.92188 23.31875Q151.92188 22.678125 151.71875 22.2875Q151.53125 21.88125 151.1875 21.6625Q150.82812 21.44375 150.3125 21.38125Q149.8125 21.303125 149.28125 21.303125Q148.64062 21.303125 147.78125 21.490625Q146.92188 21.678125 146.0625 22.0375L145.95312 22.0375L145.95312 20.178125Q146.46875 20.021875 147.40625 19.85Q148.35938 19.678125 149.28125 19.678125Q150.40625 19.678125 151.17188 19.85Q151.95312 20.021875 152.5625 20.490625Q153.15625 20.94375 153.45312 21.6625Q153.75 22.365625 153.75 23.38125L153.75 30.85L151.92188 30.85L151.92188 29.69375ZM160.125 31.06875Q158.625 31.06875 157.78125 30.209375Q156.95312 29.35 156.95312 27.50625L156.95312 21.459375L155.70312 21.459375L155.70312 19.94375L156.95312 19.94375L156.95312 16.803125L158.78125 16.803125L158.78125 19.94375L162.15625 19.94375L162.15625 21.459375L158.78125 21.459375L158.78125 26.646875Q158.78125 27.475 158.8125 27.928125Q158.84375 28.38125 159.03125 28.771875Q159.20312 29.115625 159.5625 29.2875Q159.9375 29.459375 160.57812 29.459375Q161.03125 29.459375 161.45312 29.334375Q161.875 29.19375 162.04688 29.1L162.15625 29.1L162.15625 30.75625Q161.64062 30.896875 161.10938 30.975Q160.57812 31.06875 160.125 31.06875ZM168.5625 31.1Q165.95312 31.1 164.51562 29.63125Q163.07812 28.1625 163.07812 25.459375Q163.07812 22.7875 164.46875 21.209375Q165.875 19.63125 168.125 19.63125Q169.14062 19.63125 169.92188 19.928125Q170.70312 20.225 171.29688 20.85Q171.875 21.475 172.1875 22.38125Q172.5 23.2875 172.5 24.584375L172.5 25.584375L164.9375 25.584375Q164.9375 27.490625 165.89062 28.50625Q166.85938 29.50625 168.54688 29.50625Q169.15625 29.50625 169.73438 29.365625Q170.3125 29.225 170.78125 29.00625Q171.28125 28.7875 171.625 28.584375Q171.96875 28.365625 172.1875 28.178125L172.29688 28.178125L172.29688 30.178125Q171.96875 30.31875 171.48438 30.50625Q171.01562 30.69375 170.64062 30.803125Q170.09375 30.94375 169.65625 31.021875Q169.23438 31.1 168.5625 31.1ZM170.71875 24.178125Q170.6875 23.44375 170.53125 22.9125Q170.375 22.365625 170.09375 21.990625Q169.76562 21.584375 169.26562 21.365625Q168.76562 21.146875 168.01562 21.146875Q167.28125 21.146875 166.76562 21.365625Q166.26562 21.584375 165.84375 22.00625Q165.4375 22.44375 165.21875 22.975Q165.0 23.490625 164.9375 24.178125L170.71875 24.178125ZM180.60938 21.9125L180.51562 21.9125Q180.3125 21.85 180.07812 21.834375Q179.84375 21.81875 179.53125 21.81875Q178.78125 21.81875 178.04688 22.146875Q177.3125 22.475 176.67188 23.1L176.67188 30.85L174.82812 30.85L174.82812 19.94375L176.67188 19.94375L176.67188 21.56875Q177.67188 20.678125 178.42188 20.31875Q179.17188 19.94375 179.875 19.94375Q180.15625 19.94375 180.29688 19.959375Q180.4375 19.975 180.60938 20.00625L180.60938 21.9125ZM183.70312 30.85L181.875 30.85L181.875 19.94375L183.70312 19.94375L183.70312 30.85ZM183.82812 18.115625L181.73438 18.115625L181.73438 16.209375L183.82812 16.209375L183.82812 18.115625ZM192.92188 28.1625L192.92188 25.13125Q192.26562 25.19375 191.26562 25.303125Q190.26562 25.396875 189.65625 25.584375Q188.92188 25.803125 188.4375 26.271875Q187.96875 26.740625 187.96875 27.56875Q187.96875 28.50625 188.48438 28.990625Q189.01562 29.459375 190.03125 29.459375Q190.90625 29.459375 191.60938 29.084375Q192.3125 28.709375 192.92188 28.1625ZM192.92188 29.69375Q192.70312 29.85 192.32812 30.146875Q191.95312 30.44375 191.59375 30.63125Q191.10938 30.88125 190.65625 31.00625Q190.20312 31.146875 189.375 31.146875Q188.70312 31.146875 188.09375 30.896875Q187.5 30.646875 187.03125 30.178125Q186.59375 29.740625 186.32812 29.084375Q186.0625 28.4125 186.0625 27.678125Q186.0625 26.553125 186.54688 25.75625Q187.03125 24.959375 188.0625 24.490625Q188.98438 24.06875 190.23438 23.9125Q191.48438 23.75625 192.92188 23.678125L192.92188 23.31875Q192.92188 22.678125 192.71875 22.2875Q192.53125 21.88125 192.1875 21.6625Q191.82812 21.44375 191.3125 21.38125Q190.8125 21.303125 190.28125 21.303125Q189.64062 21.303125 188.78125 21.490625Q187.92188 21.678125 187.0625 22.0375L186.95312 22.0375L186.95312 20.178125Q187.46875 20.021875 188.40625 19.85Q189.35938 19.678125 190.28125 19.678125Q191.40625 19.678125 192.17188 19.85Q192.95312 20.021875 193.5625 20.490625Q194.15625 20.94375 194.45312 21.6625Q194.75 22.365625 194.75 23.38125L194.75 30.85L192.92188 30.85L192.92188 29.69375ZM199.70312 30.85L197.875 30.85L197.875 15.646875L199.70312 15.646875L199.70312 30.85ZM217.40625 19.94375L213.29688 30.85L211.64062 30.85L207.5625 19.94375L209.54688 19.94375L212.53125 28.365625L215.48438 19.94375L217.40625 19.94375ZM224.60938 15.646875L218.92188 34.021873L217.26562 34.021873L222.9375 15.646875L224.60938 15.646875ZM229.78125 31.115625Q228.6875 31.115625 227.73438 30.81875Q226.78125 30.521875 226.15625 30.19375L226.15625 28.13125L226.25 28.13125Q226.48438 28.31875 226.79688 28.553125Q227.125 28.771875 227.65625 29.00625Q228.125 29.225 228.67188 29.396875Q229.23438 29.553125 229.84375 29.553125Q230.28125 29.553125 230.78125 29.459375Q231.28125 29.35 231.53125 29.19375Q231.875 28.975 232.01562 28.725Q232.17188 28.459375 232.17188 27.959375Q232.17188 27.303125 231.8125 26.975Q231.45312 26.646875 230.54688 26.4125Q230.20312 26.334375 229.625 26.225Q229.0625 26.1 228.59375 25.959375Q227.34375 25.6 226.76562 24.85Q226.20312 24.084375 226.20312 23.00625Q226.20312 21.5375 227.3125 20.615625Q228.4375 19.678125 230.28125 19.678125Q231.1875 19.678125 232.09375 19.9125Q233.01562 20.13125 233.64062 20.475L233.64062 22.428125L233.54688 22.428125Q232.84375 21.88125 231.96875 21.553125Q231.10938 21.225 230.23438 21.225Q229.32812 21.225 228.70312 21.615625Q228.07812 21.990625 228.07812 22.75625Q228.07812 23.44375 228.45312 23.7875Q228.82812 24.115625 229.64062 24.334375Q230.04688 24.44375 230.54688 24.553125Q231.0625 24.646875 231.60938 24.7875Q232.82812 25.084375 233.4375 25.7875Q234.04688 26.490625 234.04688 27.709375Q234.04688 28.4125 233.76562 29.0375Q233.48438 29.6625 232.95312 30.115625Q232.35938 30.6 231.625 30.85Q230.89062 31.115625 229.78125 31.115625ZM248.0625 31.13125Q246.51562 31.13125 245.23438 30.6625Q243.95312 30.19375 243.04688 29.240625Q242.125 28.271875 241.625 26.85Q241.14062 25.4125 241.14062 23.56875Q241.14062 21.803125 241.625 20.4125Q242.125 19.021875 243.04688 18.0375Q243.9375 17.084375 245.23438 16.56875Q246.53125 16.0375 248.07812 16.0375Q248.8125 16.0375 249.48438 16.146875Q250.15625 16.25625 250.78125 16.44375Q251.26562 16.584375 251.85938 16.85Q252.46875 17.115625 252.82812 17.2875L252.82812 19.63125L252.67188 19.63125Q252.3125 19.303125 251.92188 19.021875Q251.53125 18.725 250.82812 18.396875Q250.25 18.1 249.48438 17.9125Q248.71875 17.709375 247.84375 17.709375Q245.75 17.709375 244.45312 19.303125Q243.15625 20.88125 243.15625 23.50625Q243.15625 24.975 243.5 26.06875Q243.84375 27.1625 244.48438 27.9125Q245.10938 28.678125 245.98438 29.06875Q246.875 29.459375 247.98438 29.459375Q248.79688 29.459375 249.60938 29.35Q250.42188 29.225 250.98438 28.990625L250.98438 25.240625L247.625 25.240625L247.625 23.5375L252.89062 23.5375L252.89062 29.88125Q252.51562 30.053125 251.89062 30.303125Q251.28125 30.553125 250.75 30.709375Q250.03125 30.9125 249.45312 31.021875Q248.875 31.13125 248.0625 31.13125ZM259.03125 31.115625Q257.45312 31.115625 256.34375 30.7875Q255.23438 30.459375 254.25 29.975L254.25 27.553125L254.39062 27.553125Q255.34375 28.459375 256.54688 28.959375Q257.76562 29.44375 258.89062 29.44375Q260.5 29.44375 261.3125 28.771875Q262.14062 28.1 262.14062 27.00625Q262.14062 26.146875 261.70312 25.6Q261.28125 25.053125 260.34375 24.7875Q259.65625 24.584375 259.09375 24.459375Q258.54688 24.334375 257.70312 24.115625Q256.95312 23.928125 256.35938 23.63125Q255.76562 23.31875 255.3125 22.834375Q254.85938 22.35 254.60938 21.709375Q254.35938 21.053125 254.35938 20.209375Q254.35938 18.44375 255.73438 17.240625Q257.10938 16.0375 259.25 16.0375Q260.46875 16.0375 261.5625 16.2875Q262.65625 16.5375 263.57812 16.975L263.57812 19.303125L263.4375 19.303125Q262.73438 18.6625 261.65625 18.19375Q260.57812 17.709375 259.375 17.709375Q258.03125 17.709375 257.20312 18.35Q256.375 18.975 256.375 20.00625Q256.375 20.928125 256.85938 21.475Q257.34375 22.021875 258.28125 22.271875Q258.89062 22.44375 259.78125 22.6625Q260.67188 22.865625 261.25 23.0375Q262.76562 23.490625 263.45312 24.428125Q264.14062 25.35 264.14062 26.709375Q264.14062 27.553125 263.79688 28.396875Q263.45312 29.225 262.82812 29.7875Q262.125 30.428125 261.23438 30.771875Q260.35938 31.115625 259.03125 31.115625ZM282.375 30.85L280.20312 30.85L273.78125 18.303125L273.78125 30.85L271.96875 30.85L271.96875 16.303125L274.71875 16.303125L280.5625 27.81875L280.5625 16.303125L282.375 16.303125L282.375 30.85ZM293.79688 25.396875Q293.79688 28.146875 292.46875 29.646875Q291.14062 31.146875 288.9375 31.146875Q286.67188 31.146875 285.35938 29.6Q284.0625 28.053125 284.0625 25.396875Q284.0625 22.6625 285.40625 21.146875Q286.75 19.63125 288.9375 19.63125Q291.14062 19.63125 292.46875 21.146875Q293.79688 22.6625 293.79688 25.396875ZM291.90625 25.396875Q291.90625 23.2875 291.125 22.25625Q290.35938 21.225 288.9375 21.225Q287.5 21.225 286.71875 22.25625Q285.95312 23.2875 285.95312 25.396875Q285.95312 27.44375 286.71875 28.50625Q287.5 29.56875 288.9375 29.56875Q290.35938 29.56875 291.125 28.5375Q291.90625 27.490625 291.90625 25.396875ZM304.40625 30.85L302.5625 30.85L302.5625 24.63125Q302.5625 23.88125 302.48438 23.240625Q302.42188 22.584375 302.21875 22.19375Q301.98438 21.7875 301.57812 21.584375Q301.1875 21.38125 300.5 21.38125Q299.8125 21.38125 299.07812 21.75625Q298.35938 22.115625 297.67188 22.709375L297.67188 30.85L295.82812 30.85L295.82812 19.94375L297.67188 19.94375L297.67188 21.146875Q298.48438 20.4125 299.28125 20.021875Q300.09375 19.63125 300.96875 19.63125Q302.59375 19.63125 303.5 20.69375Q304.40625 21.75625 304.40625 23.771875L304.40625 30.85ZM325.4375 30.85L323.5 30.85L323.5 18.31875L319.71875 26.85L318.54688 26.85L314.78125 18.31875L314.78125 30.85L312.96875 30.85L312.96875 16.303125L315.60938 16.303125L319.25 24.396875L322.75 16.303125L325.4375 16.303125L325.4375 30.85ZM333.92188 28.1625L333.92188 25.13125Q333.26562 25.19375 332.26562 25.303125Q331.26562 25.396875 330.65625 25.584375Q329.92188 25.803125 329.4375 26.271875Q328.96875 26.740625 328.96875 27.56875Q328.96875 28.50625 329.48438 28.990625Q330.01562 29.459375 331.03125 29.459375Q331.90625 29.459375 332.60938 29.084375Q333.3125 28.709375 333.92188 28.1625ZM333.92188 29.69375Q333.70312 29.85 333.32812 30.146875Q332.95312 30.44375 332.59375 30.63125Q332.10938 30.88125 331.65625 31.00625Q331.20312 31.146875 330.375 31.146875Q329.70312 31.146875 329.09375 30.896875Q328.5 30.646875 328.03125 30.178125Q327.59375 29.740625 327.32812 29.084375Q327.0625 28.4125 327.0625 27.678125Q327.0625 26.553125 327.54688 25.75625Q328.03125 24.959375 329.0625 24.490625Q329.98438 24.06875 331.23438 23.9125Q332.48438 23.75625 333.92188 23.678125L333.92188 23.31875Q333.92188 22.678125 333.71875 22.2875Q333.53125 21.88125 333.1875 21.6625Q332.82812 21.44375 332.3125 21.38125Q331.8125 21.303125 331.28125 21.303125Q330.64062 21.303125 329.78125 21.490625Q328.92188 21.678125 328.0625 22.0375L327.95312 22.0375L327.95312 20.178125Q328.46875 20.021875 329.40625 19.85Q330.35938 19.678125 331.28125 19.678125Q332.40625 19.678125 333.17188 19.85Q333.95312 20.021875 334.5625 20.490625Q335.15625 20.94375 335.45312 21.6625Q335.75 22.365625 335.75 23.38125L335.75 30.85L333.92188 30.85L333.92188 29.69375ZM342.125 31.06875Q340.625 31.06875 339.78125 30.209375Q338.95312 29.35 338.95312 27.50625L338.95312 21.459375L337.70312 21.459375L337.70312 19.94375L338.95312 19.94375L338.95312 16.803125L340.78125 16.803125L340.78125 19.94375L344.15625 19.94375L344.15625 21.459375L340.78125 21.459375L340.78125 26.646875Q340.78125 27.475 340.8125 27.928125Q340.84375 28.38125 341.03125 28.771875Q341.20312 29.115625 341.5625 29.2875Q341.9375 29.459375 342.57812 29.459375Q343.03125 29.459375 343.45312 29.334375Q343.875 29.19375 344.04688 29.1L344.15625 29.1L344.15625 30.75625Q343.64062 30.896875 343.10938 30.975Q342.57812 31.06875 342.125 31.06875ZM350.5625 31.1Q347.95312 31.1 346.51562 29.63125Q345.07812 28.1625 345.07812 25.459375Q345.07812 22.7875 346.46875 21.209375Q347.875 19.63125 350.125 19.63125Q351.14062 19.63125 351.92188 19.928125Q352.70312 20.225 353.29688 20.85Q353.875 21.475 354.1875 22.38125Q354.5 23.2875 354.5 24.584375L354.5 25.584375L346.9375 25.584375Q346.9375 27.490625 347.89062 28.50625Q348.85938 29.50625 350.54688 29.50625Q351.15625 29.50625 351.73438 29.365625Q352.3125 29.225 352.78125 29.00625Q353.28125 28.7875 353.625 28.584375Q353.96875 28.365625 354.1875 28.178125L354.29688 28.178125L354.29688 30.178125Q353.96875 30.31875 353.48438 30.50625Q353.01562 30.69375 352.64062 30.803125Q352.09375 30.94375 351.65625 31.021875Q351.23438 31.1 350.5625 31.1ZM352.71875 24.178125Q352.6875 23.44375 352.53125 22.9125Q352.375 22.365625 352.09375 21.990625Q351.76562 21.584375 351.26562 21.365625Q350.76562 21.146875 350.01562 21.146875Q349.28125 21.146875 348.76562 21.365625Q348.26562 21.584375 347.84375 22.00625Q347.4375 22.44375 347.21875 22.975Q347.0 23.490625 346.9375 24.178125L352.71875 24.178125ZM362.60938 21.9125L362.51562 21.9125Q362.3125 21.85 362.07812 21.834375Q361.84375 21.81875 361.53125 21.81875Q360.78125 21.81875 360.04688 22.146875Q359.3125 22.475 358.67188 23.1L358.67188 30.85L356.82812 30.85L356.82812 19.94375L358.67188 19.94375L358.67188 21.56875Q359.67188 20.678125 360.42188 20.31875Q361.17188 19.94375 361.875 19.94375Q362.15625 19.94375 362.29688 19.959375Q362.4375 19.975 362.60938 20.00625L362.60938 21.9125ZM365.70312 30.85L363.875 30.85L363.875 19.94375L365.70312 19.94375L365.70312 30.85ZM365.82812 18.115625L363.73438 18.115625L363.73438 16.209375L365.82812 16.209375L365.82812 18.115625ZM374.92188 28.1625L374.92188 25.13125Q374.26562 25.19375 373.26562 25.303125Q372.26562 25.396875 371.65625 25.584375Q370.92188 25.803125 370.4375 26.271875Q369.96875 26.740625 369.96875 27.56875Q369.96875 28.50625 370.48438 28.990625Q371.01562 29.459375 372.03125 29.459375Q372.90625 29.459375 373.60938 29.084375Q374.3125 28.709375 374.92188 28.1625ZM374.92188 29.69375Q374.70312 29.85 374.32812 30.146875Q373.95312 30.44375 373.59375 30.63125Q373.10938 30.88125 372.65625 31.00625Q372.20312 31.146875 371.375 31.146875Q370.70312 31.146875 370.09375 30.896875Q369.5 30.646875 369.03125 30.178125Q368.59375 29.740625 368.32812 29.084375Q368.0625 28.4125 368.0625 27.678125Q368.0625 26.553125 368.54688 25.75625Q369.03125 24.959375 370.0625 24.490625Q370.98438 24.06875 372.23438 23.9125Q373.48438 23.75625 374.92188 23.678125L374.92188 23.31875Q374.92188 22.678125 374.71875 22.2875Q374.53125 21.88125 374.1875 21.6625Q373.82812 21.44375 373.3125 21.38125Q372.8125 21.303125 372.28125 21.303125Q371.64062 21.303125 370.78125 21.490625Q369.92188 21.678125 369.0625 22.0375L368.95312 22.0375L368.95312 20.178125Q369.46875 20.021875 370.40625 19.85Q371.35938 19.678125 372.28125 19.678125Q373.40625 19.678125 374.17188 19.85Q374.95312 20.021875 375.5625 20.490625Q376.15625 20.94375 376.45312 21.6625Q376.75 22.365625 376.75 23.38125L376.75 30.85L374.92188 30.85L374.92188 29.69375ZM381.70312 30.85L379.875 30.85L379.875 15.646875L381.70312 15.646875L381.70312 30.85ZM396.65625 31.115625Q395.23438 31.115625 394.03125 30.646875Q392.84375 30.1625 391.96875 29.209375Q391.10938 28.25625 390.625 26.85Q390.14062 25.428125 390.14062 23.6Q390.14062 21.771875 390.60938 20.4125Q391.07812 19.053125 391.96875 18.053125Q392.82812 17.06875 394.01562 16.553125Q395.21875 16.0375 396.6875 16.0375Q397.42188 16.0375 398.0625 16.146875Q398.70312 16.25625 399.25 16.428125Q399.71875 16.56875 400.20312 16.7875Q400.70312 17.00625 401.1875 17.271875L401.1875 19.615625L401.03125 19.615625Q400.76562 19.38125 400.35938 19.053125Q399.96875 18.709375 399.39062 18.38125Q398.84375 18.084375 398.1875 17.896875Q397.53125 17.69375 396.67188 17.69375Q395.73438 17.69375 394.90625 18.084375Q394.07812 18.459375 393.45312 19.19375Q392.84375 19.94375 392.5 21.06875Q392.15625 22.19375 392.15625 23.6Q392.15625 25.084375 392.51562 26.1625Q392.875 27.240625 393.5 27.990625Q394.10938 28.709375 394.92188 29.084375Q395.75 29.44375 396.67188 29.44375Q397.51562 29.44375 398.21875 29.240625Q398.9375 29.0375 399.48438 28.725Q400.03125 28.4125 400.42188 28.1Q400.8125 27.7875 401.03125 27.553125L401.1875 27.553125L401.1875 29.865625Q400.70312 30.084375 400.28125 30.2875Q399.85938 30.490625 399.25 30.69375Q398.60938 30.896875 398.0625 31.00625Q397.53125 31.115625 396.65625 31.115625ZM411.79688 25.396875Q411.79688 28.146875 410.46875 29.646875Q409.14062 31.146875 406.9375 31.146875Q404.67188 31.146875 403.35938 29.6Q402.0625 28.053125 402.0625 25.396875Q402.0625 22.6625 403.40625 21.146875Q404.75 19.63125 406.9375 19.63125Q409.14062 19.63125 410.46875 21.146875Q411.79688 22.6625 411.79688 25.396875ZM409.90625 25.396875Q409.90625 23.2875 409.125 22.25625Q408.35938 21.225 406.9375 21.225Q405.5 21.225 404.71875 22.25625Q403.95312 23.2875 403.95312 25.396875Q403.95312 27.44375 404.71875 28.50625Q405.5 29.56875 406.9375 29.56875Q408.35938 29.56875 409.125 28.5375Q409.90625 27.490625 409.90625 25.396875ZM426.21875 30.85L426.21875 24.5375Q426.21875 23.7875 426.15625 23.146875Q426.09375 22.50625 425.90625 22.146875Q425.71875 21.75625 425.34375 21.56875Q424.98438 21.38125 424.375 21.38125Q423.8125 21.38125 423.15625 21.740625Q422.51562 22.084375 421.8125 22.740625Q421.82812 22.896875 421.84375 23.13125Q421.85938 23.365625 421.85938 23.678125L421.85938 30.85L420.01562 30.85L420.01562 24.5375Q420.01562 23.7875 419.95312 23.146875Q419.90625 22.50625 419.71875 22.146875Q419.51562 21.75625 419.15625 21.56875Q418.79688 21.38125 418.1875 21.38125Q417.59375 21.38125 416.9375 21.75625Q416.28125 22.13125 415.67188 22.709375L415.67188 30.85L413.82812 30.85L413.82812 19.94375L415.67188 19.94375L415.67188 21.146875Q416.39062 20.428125 417.09375 20.0375Q417.79688 19.63125 418.65625 19.63125Q419.625 19.63125 420.35938 20.084375Q421.10938 20.521875 421.5 21.521875Q422.32812 20.6 423.125 20.115625Q423.92188 19.63125 424.84375 19.63125Q425.54688 19.63125 426.125 19.865625Q426.70312 20.084375 427.125 20.56875Q427.5625 21.06875 427.79688 21.81875Q428.04688 22.553125 428.04688 23.678125L428.04688 30.85L426.21875 30.85ZM439.98438 25.1Q439.98438 27.834375 438.67188 29.459375Q437.375 31.06875 435.375 31.06875Q434.5625 31.06875 433.9375 30.88125Q433.3125 30.69375 432.67188 30.303125L432.67188 34.88125L430.82812 34.88125L430.82812 19.94375L432.67188 19.94375L432.67188 21.084375Q433.34375 20.475 434.17188 20.053125Q435.01562 19.63125 436.0 19.63125Q437.875 19.63125 438.92188 21.115625Q439.98438 22.6 439.98438 25.1ZM438.07812 25.31875Q438.07812 23.44375 437.48438 22.4125Q436.89062 21.38125 435.5625 21.38125Q434.78125 21.38125 434.04688 21.740625Q433.3125 22.084375 432.67188 22.63125L432.67188 28.803125Q433.39062 29.1625 433.89062 29.2875Q434.40625 29.4125 435.07812 29.4125Q436.5 29.4125 437.28125 28.365625Q438.07812 27.31875 438.07812 25.31875ZM450.79688 25.396875Q450.79688 28.146875 449.46875 29.646875Q448.14062 31.146875 445.9375 31.146875Q443.67188 31.146875 442.35938 29.6Q441.0625 28.053125 441.0625 25.396875Q441.0625 22.6625 442.40625 21.146875Q443.75 19.63125 445.9375 19.63125Q448.14062 19.63125 449.46875 21.146875Q450.79688 22.6625 450.79688 25.396875ZM448.90625 25.396875Q448.90625 23.2875 448.125 22.25625Q447.35938 21.225 445.9375 21.225Q444.5 21.225 443.71875 22.25625Q442.95312 23.2875 442.95312 25.396875Q442.95312 27.44375 443.71875 28.50625Q444.5 29.56875 445.9375 29.56875Q447.35938 29.56875 448.125 28.5375Q448.90625 27.490625 448.90625 25.396875ZM461.40625 30.85L459.5625 30.85L459.5625 24.63125Q459.5625 23.88125 459.48438 23.240625Q459.42188 22.584375 459.21875 22.19375Q458.98438 21.7875 458.57812 21.584375Q458.1875 21.38125 457.5 21.38125Q456.8125 21.38125 456.07812 21.75625Q455.35938 22.115625 454.67188 22.709375L454.67188 30.85L452.82812 30.85L452.82812 19.94375L454.67188 19.94375L454.67188 21.146875Q455.48438 20.4125 456.28125 20.021875Q457.09375 19.63125 457.96875 19.63125Q459.59375 19.63125 460.5 20.69375Q461.40625 21.75625 461.40625 23.771875L461.40625 30.85ZM468.5625 31.1Q465.95312 31.1 464.51562 29.63125Q463.07812 28.1625 463.07812 25.459375Q463.07812 22.7875 464.46875 21.209375Q465.875 19.63125 468.125 19.63125Q469.14062 19.63125 469.92188 19.928125Q470.70312 20.225 471.29688 20.85Q471.875 21.475 472.1875 22.38125Q472.5 23.2875 472.5 24.584375L472.5 25.584375L464.9375 25.584375Q464.9375 27.490625 465.89062 28.50625Q466.85938 29.50625 468.54688 29.50625Q469.15625 29.50625 469.73438 29.365625Q470.3125 29.225 470.78125 29.00625Q471.28125 28.7875 471.625 28.584375Q471.96875 28.365625 472.1875 28.178125L472.29688 28.178125L472.29688 30.178125Q471.96875 30.31875 471.48438 30.50625Q471.01562 30.69375 470.64062 30.803125Q470.09375 30.94375 469.65625 31.021875Q469.23438 31.1 468.5625 31.1ZM470.71875 24.178125Q470.6875 23.44375 470.53125 22.9125Q470.375 22.365625 470.09375 21.990625Q469.76562 21.584375 469.26562 21.365625Q468.76562 21.146875 468.01562 21.146875Q467.28125 21.146875 466.76562 21.365625Q466.26562 21.584375 465.84375 22.00625Q465.4375 22.44375 465.21875 22.975Q465.0 23.490625 464.9375 24.178125L470.71875 24.178125ZM483.40625 30.85L481.5625 30.85L481.5625 24.63125Q481.5625 23.88125 481.48438 23.240625Q481.42188 22.584375 481.21875 22.19375Q480.98438 21.7875 480.57812 21.584375Q480.1875 21.38125 479.5 21.38125Q478.8125 21.38125 478.07812 21.75625Q477.35938 22.115625 476.67188 22.709375L476.67188 30.85L474.82812 30.85L474.82812 19.94375L476.67188 19.94375L476.67188 21.146875Q477.48438 20.4125 478.28125 20.021875Q479.09375 19.63125 479.96875 19.63125Q481.59375 19.63125 482.5 20.69375Q483.40625 21.75625 483.40625 23.771875L483.40625 30.85ZM489.125 31.06875Q487.625 31.06875 486.78125 30.209375Q485.95312 29.35 485.95312 27.50625L485.95312 21.459375L484.70312 21.459375L484.70312 19.94375L485.95312 19.94375L485.95312 16.803125L487.78125 16.803125L487.78125 19.94375L491.15625 19.94375L491.15625 21.459375L487.78125 21.459375L487.78125 26.646875Q487.78125 27.475 487.8125 27.928125Q487.84375 28.38125 488.03125 28.771875Q488.20312 29.115625 488.5625 29.2875Q488.9375 29.459375 489.57812 29.459375Q490.03125 29.459375 490.45312 29.334375Q490.875 29.19375 491.04688 29.1L491.15625 29.1L491.15625 30.75625Q490.64062 30.896875 490.10938 30.975Q489.57812 31.06875 489.125 31.06875ZM495.78125 31.115625Q494.6875 31.115625 493.73438 30.81875Q492.78125 30.521875 492.15625 30.19375L492.15625 28.13125L492.25 28.13125Q492.48438 28.31875 492.79688 28.553125Q493.125 28.771875 493.65625 29.00625Q494.125 29.225 494.67188 29.396875Q495.23438 29.553125 495.84375 29.553125Q496.28125 29.553125 496.78125 29.459375Q497.28125 29.35 497.53125 29.19375Q497.875 28.975 498.01562 28.725Q498.17188 28.459375 498.17188 27.959375Q498.17188 27.303125 497.8125 26.975Q497.45312 26.646875 496.54688 26.4125Q496.20312 26.334375 495.625 26.225Q495.0625 26.1 494.59375 25.959375Q493.34375 25.6 492.76562 24.85Q492.20312 24.084375 492.20312 23.00625Q492.20312 21.5375 493.3125 20.615625Q494.4375 19.678125 496.28125 19.678125Q497.1875 19.678125 498.09375 19.9125Q499.01562 20.13125 499.64062 20.475L499.64062 22.428125L499.54688 22.428125Q498.84375 21.88125 497.96875 21.553125Q497.10938 21.225 496.23438 21.225Q495.32812 21.225 494.70312 21.615625Q494.07812 21.990625 494.07812 22.75625Q494.07812 23.44375 494.45312 23.7875Q494.82812 24.115625 495.64062 24.334375Q496.04688 24.44375 496.54688 24.553125Q497.0625 24.646875 497.60938 24.7875Q498.82812 25.084375 499.4375 25.7875Q500.04688 26.490625 500.04688 27.709375Q500.04688 28.4125 499.76562 29.0375Q499.48438 29.6625 498.95312 30.115625Q498.35938 30.6 497.625 30.85Q496.89062 31.115625 495.78125 31.115625Z" fill-rule="nonzero"/></svg>